M48
; DRILL file {KiCad 9.0.6} date 2026-01-10T11:23:22+0100
; FORMAT={-:-/ absolute / inch / decimal}
; #@! TF.CreationDate,2026-01-10T11:23:22+01:00
; #@! TF.GenerationSoftware,Kicad,Pcbnew,9.0.6
; #@! TF.FileFunction,Plated,1,2,PTH
FMAT,2
INCH
; #@! TA.AperFunction,Plated,PTH,ViaDrill
T1C0.0157
; #@! TA.AperFunction,Plated,PTH,ComponentDrill
T2C0.0394
%
G90
G05
T1
X3.7954Y-4.9794
X4.0946Y-5.0657
X4.1639Y-6.472
X4.186Y-5.559
X4.2801Y-5.4291
X4.3175Y-6.4991
X4.3678Y-5.496
X4.3844Y-5.1759
X4.4191Y-5.4409
X4.5878Y-5.466
X4.5882Y-5.5556
X4.6278Y-6.616
X4.7793Y-6.666
X4.8366Y-6.6496
X4.8578Y-6.076
T2
X3.4878Y-4.896
X3.4878Y-5.056
X3.4878Y-5.196
X3.4878Y-5.296
X3.4878Y-5.396
X3.4878Y-5.496
X3.4878Y-5.596
X3.4878Y-5.696
X3.4878Y-5.796
X3.4878Y-5.896
X3.4878Y-5.996
X3.4878Y-6.096
X3.4878Y-6.196
X3.4878Y-6.296
X3.4878Y-6.396
X3.4878Y-6.496
X3.4878Y-6.596
X3.4878Y-6.696
X3.5387Y-6.8007
X3.5878Y-5.196
X3.5878Y-5.296
X3.5878Y-5.396
X3.5878Y-5.496
X3.5878Y-5.596
X3.5878Y-5.696
X3.5878Y-5.796
X3.5878Y-5.896
X3.5878Y-5.996
X3.5878Y-6.096
X3.5878Y-6.196
X3.5878Y-6.296
X3.5878Y-6.396
X3.5878Y-6.496
X3.5878Y-6.596
X3.5878Y-6.696
X3.6482Y-6.8019
X3.6878Y-4.896
X3.6878Y-5.056
X3.6903Y-5.1964
X3.6903Y-5.2964
X3.6903Y-5.3964
X3.6903Y-5.4964
X3.6903Y-5.5964
X3.6903Y-5.6964
X3.6903Y-5.7964
X3.6903Y-5.8964
X3.6903Y-5.9964
X3.6903Y-6.0964
X3.6903Y-6.1964
X3.6903Y-6.2964
X3.6903Y-6.3964
X3.6903Y-6.4964
X3.6903Y-6.5964
X3.6903Y-6.6964
X3.899Y-5.2068
X3.899Y-5.3068
X3.899Y-5.4068
X3.899Y-5.5068
X3.899Y-5.6068
X3.899Y-5.7068
X3.899Y-5.8068
X3.899Y-5.9068
X3.899Y-6.0068
X3.899Y-6.1068
X3.899Y-6.2068
X3.899Y-6.3068
X3.899Y-6.4068
X3.899Y-6.5068
X3.899Y-6.6068
X4.0913Y-4.9665
X4.1913Y-4.9665
X4.2913Y-4.9665
X4.4824Y-4.9661
X4.499Y-5.2068
X4.499Y-5.3068
X4.499Y-5.4068
X4.499Y-5.5068
X4.499Y-5.6068
X4.499Y-5.7068
X4.499Y-5.8068
X4.499Y-5.9068
X4.499Y-6.0068
X4.499Y-6.1068
X4.499Y-6.2068
X4.499Y-6.3068
X4.499Y-6.4068
X4.499Y-6.5068
X4.499Y-6.6068
X4.6013Y-4.9641
X4.6135Y-6.766
X4.7147Y-6.766
X4.7178Y-5.106
X4.7178Y-5.206
X4.7178Y-5.306
X4.7178Y-5.406
X4.7178Y-5.506
X4.7178Y-5.606
X4.7178Y-5.706
X4.7178Y-5.806
X4.7178Y-5.906
X4.7178Y-6.006
X4.7178Y-6.106
X4.7178Y-6.206
X4.7178Y-6.306
X4.7178Y-6.406
X4.7178Y-6.506
X4.7178Y-6.606
X4.7246Y-4.9641
X4.8155Y-6.766
X4.8439Y-4.9661
X4.9163Y-6.766
M30
