%TF.GenerationSoftware,KiCad,Pcbnew,9.0.6*%
%TF.CreationDate,2026-01-10T11:23:17+01:00*%
%TF.ProjectId,NANO-ShieldV2,4e414e4f-2d53-4686-9965-6c6456322e6b,rev?*%
%TF.SameCoordinates,Original*%
%TF.FileFunction,Copper,L1,Top*%
%TF.FilePolarity,Positive*%
%FSLAX46Y46*%
G04 Gerber Fmt 4.6, Leading zero omitted, Abs format (unit mm)*
G04 Created by KiCad (PCBNEW 9.0.6) date 2026-01-10 11:23:17*
%MOMM*%
%LPD*%
G01*
G04 APERTURE LIST*
%TA.AperFunction,ComponentPad*%
%ADD10R,1.600000X1.600000*%
%TD*%
%TA.AperFunction,ComponentPad*%
%ADD11O,1.600000X1.600000*%
%TD*%
%TA.AperFunction,ComponentPad*%
%ADD12C,2.000000*%
%TD*%
%TA.AperFunction,ComponentPad*%
%ADD13R,2.000000X2.000000*%
%TD*%
%TA.AperFunction,ViaPad*%
%ADD14C,0.800000*%
%TD*%
%TA.AperFunction,Conductor*%
%ADD15C,0.250000*%
%TD*%
G04 APERTURE END LIST*
D10*
%TO.P,A1,1*%
%TO.N,Net-(A1-Pad1)*%
X99035001Y-132253001D03*
D11*
%TO.P,A1,2*%
%TO.N,Net-(A1-Pad2)*%
X99035001Y-134793001D03*
%TO.P,A1,3*%
%TO.N,Net-(A1-Pad28)*%
X99035001Y-137333001D03*
%TO.P,A1,4*%
%TO.N,Net-(A1-Pad29)*%
X99035001Y-139873001D03*
%TO.P,A1,5*%
%TO.N,Net-(A1-Pad5)*%
X99035001Y-142413001D03*
%TO.P,A1,6*%
%TO.N,Net-(A1-Pad6)*%
X99035001Y-144953001D03*
%TO.P,A1,7*%
%TO.N,Net-(A1-Pad7)*%
X99035001Y-147493001D03*
%TO.P,A1,8*%
%TO.N,Net-(A1-Pad8)*%
X99035001Y-150033001D03*
%TO.P,A1,9*%
%TO.N,Net-(A1-Pad9)*%
X99035001Y-152573001D03*
%TO.P,A1,10*%
%TO.N,Net-(A1-Pad10)*%
X99035001Y-155113001D03*
%TO.P,A1,11*%
%TO.N,Net-(A1-Pad11)*%
X99035001Y-157653001D03*
%TO.P,A1,12*%
%TO.N,Net-(A1-Pad12)*%
X99035001Y-160193001D03*
%TO.P,A1,13*%
%TO.N,Net-(A1-Pad13)*%
X99035001Y-162733001D03*
%TO.P,A1,14*%
%TO.N,Net-(A1-Pad14)*%
X99035001Y-165273001D03*
%TO.P,A1,15*%
%TO.N,Net-(A1-Pad15)*%
X99035001Y-167813001D03*
%TO.P,A1,16*%
%TO.N,Net-(A1-Pad16)*%
X114275001Y-167813001D03*
%TO.P,A1,17*%
%TO.N,Net-(A1-Pad17)*%
X114275001Y-165273001D03*
%TO.P,A1,18*%
%TO.N,Net-(A1-Pad18)*%
X114275001Y-162733001D03*
%TO.P,A1,19*%
%TO.N,Net-(A1-Pad19)*%
X114275001Y-160193001D03*
%TO.P,A1,20*%
%TO.N,Net-(A1-Pad20)*%
X114275001Y-157653001D03*
%TO.P,A1,21*%
%TO.N,Net-(A1-Pad21)*%
X114275001Y-155113001D03*
%TO.P,A1,22*%
%TO.N,Net-(A1-Pad22)*%
X114275001Y-152573001D03*
%TO.P,A1,23*%
%TO.N,Net-(A1-Pad23)*%
X114275001Y-150033001D03*
%TO.P,A1,24*%
%TO.N,Net-(A1-Pad24)*%
X114275001Y-147493001D03*
%TO.P,A1,25*%
%TO.N,Net-(A1-Pad25)*%
X114275001Y-144953001D03*
%TO.P,A1,26*%
%TO.N,Net-(A1-Pad26)*%
X114275001Y-142413001D03*
%TO.P,A1,27*%
%TO.N,Net-(A1-Pad27)*%
X114275001Y-139873001D03*
%TO.P,A1,28*%
%TO.N,Net-(A1-Pad28)*%
X114275001Y-137333001D03*
%TO.P,A1,29*%
%TO.N,Net-(A1-Pad29)*%
X114275001Y-134793001D03*
%TO.P,A1,30*%
%TO.N,Net-(A1-Pad30)*%
X114275001Y-132253001D03*
%TD*%
D12*
%TO.P,J2,1*%
%TO.N,Net-(A1-Pad27)*%
X91130000Y-131978000D03*
%TO.P,J2,2*%
X91130000Y-134518000D03*
%TO.P,J2,3*%
X91130000Y-137058000D03*
%TO.P,J2,4*%
X91130000Y-139598000D03*
%TO.P,J2,5*%
X91130000Y-142138000D03*
%TO.P,J2,6*%
X91130000Y-144678000D03*
%TO.P,J2,7*%
X91130000Y-147218000D03*
%TO.P,J2,8*%
X91130000Y-149758000D03*
%TO.P,J2,9*%
X91130000Y-152298000D03*
%TO.P,J2,10*%
X91130000Y-154838000D03*
%TO.P,J2,11*%
X91130000Y-157378000D03*
%TO.P,J2,12*%
X91130000Y-159918000D03*
%TO.P,J2,13*%
X91130000Y-162458000D03*
%TO.P,J2,14*%
X91130000Y-164998000D03*
%TO.P,J2,15*%
X91130000Y-167538000D03*
%TO.P,J2,16*%
X91130000Y-170078000D03*
%TD*%
%TO.P,J3,1*%
%TO.N,Net-(A1-Pad2)*%
X93734000Y-131988000D03*
%TO.P,J3,2*%
%TO.N,Net-(A1-Pad1)*%
X93734000Y-134528000D03*
%TO.P,J3,3*%
%TO.N,Net-(A1-Pad5)*%
X93734000Y-137068000D03*
%TO.P,J3,4*%
%TO.N,Net-(A1-Pad6)*%
X93734000Y-139608000D03*
%TO.P,J3,5*%
%TO.N,Net-(A1-Pad7)*%
X93734000Y-142148000D03*
%TO.P,J3,6*%
%TO.N,Net-(A1-Pad8)*%
X93734000Y-144688000D03*
%TO.P,J3,7*%
%TO.N,Net-(A1-Pad9)*%
X93734000Y-147228000D03*
%TO.P,J3,8*%
%TO.N,Net-(A1-Pad10)*%
X93734000Y-149768000D03*
%TO.P,J3,9*%
%TO.N,Net-(A1-Pad11)*%
X93734000Y-152308000D03*
%TO.P,J3,10*%
%TO.N,Net-(A1-Pad12)*%
X93734000Y-154848000D03*
%TO.P,J3,11*%
%TO.N,Net-(A1-Pad13)*%
X93734000Y-157388000D03*
%TO.P,J3,12*%
%TO.N,Net-(A1-Pad14)*%
X93734000Y-159928000D03*
%TO.P,J3,13*%
%TO.N,Net-(A1-Pad15)*%
X93734000Y-162468000D03*
%TO.P,J3,14*%
%TO.N,Net-(A1-Pad16)*%
X93734000Y-165008000D03*
%TO.P,J3,15*%
%TO.N,Net-(A1-Pad27)*%
X93734000Y-167548000D03*
%TO.P,J3,16*%
X93734000Y-170088000D03*
%TD*%
%TO.P,J4,1*%
%TO.N,Net-(A1-Pad19)*%
X119832000Y-167792000D03*
%TO.P,J4,2*%
%TO.N,Net-(A1-Pad20)*%
X119832000Y-165252000D03*
%TO.P,J4,3*%
%TO.N,Net-(A1-Pad21)*%
X119832000Y-162712000D03*
%TO.P,J4,4*%
%TO.N,Net-(A1-Pad22)*%
X119832000Y-160172000D03*
%TO.P,J4,5*%
%TO.N,Net-(A1-Pad23)*%
X119832000Y-157632000D03*
%TO.P,J4,6*%
%TO.N,Net-(A1-Pad24)*%
X119832000Y-155092000D03*
%TO.P,J4,7*%
%TO.N,Net-(A1-Pad25)*%
X119832000Y-152552000D03*
%TO.P,J4,8*%
%TO.N,Net-(A1-Pad26)*%
X119832000Y-150012000D03*
%TO.P,J4,9*%
%TO.N,Net-(A1-Pad27)*%
X119832000Y-147472000D03*
%TO.P,J4,10*%
%TO.N,Net-(A1-Pad29)*%
X119832000Y-144932000D03*
%TO.P,J4,11*%
%TO.N,Net-(A1-Pad14)*%
X119832000Y-142392000D03*
%TO.P,J4,12*%
%TO.N,Net-(A1-Pad13)*%
X119832000Y-139852000D03*
%TO.P,J4,13*%
%TO.N,Net-(A1-Pad16)*%
X119832000Y-137312000D03*
%TO.P,J4,14*%
%TO.N,Net-(A1-Pad30)*%
X119832000Y-134772000D03*
%TO.P,J4,15*%
%TO.N,Net-(A1-Pad17)*%
X119832000Y-132232000D03*
%TO.P,J4,16*%
%TO.N,Net-(A1-Pad27)*%
X119832000Y-129692000D03*
%TD*%
%TO.P,GND,1*%
%TO.N,Net-(A1-Pad29)*%
X88590000Y-124358000D03*
D13*
%TO.P,GND,2*%
%TO.N,Net-(S1-Pad1)*%
X93670000Y-124358000D03*
%TD*%
D12*
%TO.P,J1,1*%
%TO.N,Net-(A1-Pad29)*%
X88590000Y-170078000D03*
%TO.P,J1,2*%
X88590000Y-167538000D03*
%TO.P,J1,3*%
X88590000Y-164998000D03*
%TO.P,J1,4*%
X88590000Y-162458000D03*
%TO.P,J1,5*%
X88590000Y-159918000D03*
%TO.P,J1,6*%
X88590000Y-157378000D03*
%TO.P,J1,7*%
X88590000Y-154838000D03*
%TO.P,J1,8*%
X88590000Y-152298000D03*
%TO.P,J1,9*%
X88590000Y-149758000D03*
%TO.P,J1,10*%
X88590000Y-147218000D03*
%TO.P,J1,11*%
X88590000Y-144678000D03*
%TO.P,J1,12*%
X88590000Y-142138000D03*
%TO.P,J1,13*%
X88590000Y-139598000D03*
%TO.P,J1,14*%
X88590000Y-137058000D03*
%TO.P,J1,15*%
X88590000Y-134518000D03*
%TO.P,J1,16*%
X88590000Y-131978000D03*
%TD*%
%TO.P,GND,1*%
%TO.N,Net-(A1-Pad29)*%
X88590000Y-128422000D03*
D13*
%TO.P,GND,2*%
%TO.N,Net-(S1-Pad1)*%
X93670000Y-128422000D03*
%TD*%
D12*
%TO.P,MOSI,1*%
%TO.N,Net-(A1-Pad14)*%
X113854000Y-126138000D03*
%TD*%
%TO.P,SDL,1*%
%TO.N,Net-(A1-Pad24)*%
X122314000Y-171856000D03*
%TD*%
%TO.P,MISO,1*%
%TO.N,Net-(A1-Pad15)*%
X92664000Y-172768000D03*
%TD*%
%TO.P,SDA,1*%
%TO.N,Net-(A1-Pad24)*%
X124874000Y-171856000D03*
%TD*%
%TO.P,LP,1*%
%TO.N,Net-(A1-Pad15)*%
X123034000Y-126138000D03*
%TD*%
%TO.P,Mircro_Schalter,1*%
%TO.N,N/C*%
X103920000Y-126150000D03*
%TO.P,Mircro_Schalter,2*%
%TO.N,Net-(A1-Pad30)*%
X106460000Y-126150000D03*
%TO.P,Mircro_Schalter,3*%
%TO.N,Net-(S1-Pad1)*%
X109000000Y-126150000D03*
%TD*%
%TO.P,SDA,1*%
%TO.N,Net-(A1-Pad23)*%
X119754000Y-171856000D03*
%TD*%
%TO.P,LP,1*%
%TO.N,Net-(A1-Pad15)*%
X120004000Y-126088000D03*
%TD*%
%TO.P,MISO,1*%
%TO.N,Net-(A1-Pad14)*%
X116874000Y-126088000D03*
%TD*%
%TO.P,SDA,1*%
%TO.N,Net-(A1-Pad23)*%
X117184000Y-171856000D03*
%TD*%
%TO.P,MOSI,1*%
%TO.N,Net-(A1-Pad14)*%
X89884000Y-172738000D03*
%TD*%
D14*
%TO.N,Net-(A1-Pad29)*%
X96404000Y-126478000D03*
X104004000Y-128668000D03*
%TO.N,Net-(A1-Pad13)*%
X110942000Y-139598000D03*
X116530000Y-138836000D03*
%TO.N,Net-(A1-Pad14)*%
X106324000Y-141198000D03*
X105764000Y-164388000D03*
X109664000Y-165078000D03*
X116539723Y-141112468D03*
%TO.N,Net-(A1-Pad15)*%
X112244000Y-138198000D03*
X108714000Y-137898000D03*
X111364000Y-131468000D03*
%TO.N,Net-(A1-Pad16)*%
X117546000Y-168046000D03*
X121393000Y-169316000D03*
X122850000Y-168900000D03*
X123388000Y-154330000D03*
%TD*%
D15*
%TO.N,Net-(A1-Pad1)*%
X96760002Y-134528000D02*
X99035001Y-132253001D01*
X93734000Y-134528000D02*
X96760002Y-134528000D01*
%TO.N,Net-(A1-Pad19)*%
X115400002Y-161318002D02*
X114275001Y-160193001D01*
X119832000Y-167213002D02*
X115400002Y-162781004D01*
X115400002Y-162781004D02*
X115400002Y-161318002D01*
X119832000Y-167792000D02*
X119832000Y-167213002D01*
%TO.N,Net-(A1-Pad29)*%
X98594000Y-128668000D02*
X96404000Y-126478000D01*
X104004000Y-128668000D02*
X98594000Y-128668000D01*
X109195001Y-139873001D02*
X114275001Y-134793001D01*
X99035001Y-139873001D02*
X109195001Y-139873001D01*
%TO.N,Net-(A1-Pad20)*%
X119832000Y-165252000D02*
X118506999Y-163926999D01*
X118506999Y-161884999D02*
X114275001Y-157653001D01*
X118506999Y-163926999D02*
X118506999Y-161884999D01*
%TO.N,Net-(A1-Pad5)*%
X99035001Y-142413001D02*
X93734000Y-137112000D01*
X93734000Y-137112000D02*
X93734000Y-137068000D01*
%TO.N,Net-(A1-Pad21)*%
X115400002Y-157701004D02*
X115400002Y-156238002D01*
X119832000Y-162133002D02*
X115400002Y-157701004D01*
X115400002Y-156238002D02*
X114275001Y-155113001D01*
X119832000Y-162712000D02*
X119832000Y-162133002D01*
%TO.N,Net-(A1-Pad6)*%
X99035001Y-144953001D02*
X93734000Y-139652000D01*
X93734000Y-139652000D02*
X93734000Y-139608000D01*
%TO.N,Net-(A1-Pad22)*%
X118506999Y-156804999D02*
X114275001Y-152573001D01*
X118506999Y-158846999D02*
X118506999Y-156804999D01*
X119832000Y-160172000D02*
X118506999Y-158846999D01*
%TO.N,Net-(A1-Pad7)*%
X99035001Y-147493001D02*
X93734000Y-142192000D01*
X93734000Y-142192000D02*
X93734000Y-142148000D01*
%TO.N,Net-(A1-Pad23)*%
X119832000Y-157632000D02*
X119832000Y-157053002D01*
X115400002Y-152621004D02*
X115400002Y-151158002D01*
X115400002Y-151158002D02*
X114275001Y-150033001D01*
X122584000Y-168148000D02*
X121508000Y-168148000D01*
X119754000Y-169902000D02*
X119754000Y-171856000D01*
X119832000Y-157632000D02*
X121548000Y-157632000D01*
X121508000Y-168148000D02*
X119754000Y-169902000D01*
X121548000Y-157632000D02*
X122584000Y-158668000D01*
X119754000Y-171856000D02*
X117184000Y-171856000D01*
X119832000Y-157053002D02*
X115400002Y-152621004D01*
X122584000Y-158668000D02*
X122584000Y-168148000D01*
%TO.N,Net-(A1-Pad8)*%
X99035001Y-150033001D02*
X93734000Y-144732000D01*
X93734000Y-144732000D02*
X93734000Y-144688000D01*
%TO.N,Net-(A1-Pad24)*%
X122314000Y-171856000D02*
X124874000Y-171856000D01*
X124874000Y-171856000D02*
X124874000Y-158028000D01*
X121938000Y-155092000D02*
X123679000Y-156833000D01*
X123679000Y-156833000D02*
X124044000Y-157198000D01*
X119832000Y-155092000D02*
X118506999Y-153766999D01*
X119832000Y-155092000D02*
X121938000Y-155092000D01*
X118506999Y-151724999D02*
X114275001Y-147493001D01*
X124874000Y-158028000D02*
X123679000Y-156833000D01*
X118506999Y-153766999D02*
X118506999Y-151724999D01*
%TO.N,Net-(A1-Pad9)*%
X93734000Y-147272000D02*
X93734000Y-147228000D01*
X99035001Y-152573001D02*
X93734000Y-147272000D01*
%TO.N,Net-(A1-Pad25)*%
X115400002Y-146078002D02*
X114275001Y-144953001D01*
X115400002Y-147541004D02*
X115400002Y-146078002D01*
X119832000Y-151973002D02*
X115400002Y-147541004D01*
X119832000Y-152552000D02*
X119832000Y-151973002D01*
%TO.N,Net-(A1-Pad10)*%
X93734000Y-149812000D02*
X93734000Y-149768000D01*
X99035001Y-155113001D02*
X93734000Y-149812000D01*
%TO.N,Net-(A1-Pad26)*%
X118506999Y-148686999D02*
X118506999Y-146644999D01*
X118506999Y-146644999D02*
X114275001Y-142413001D01*
X119832000Y-150012000D02*
X118506999Y-148686999D01*
%TO.N,Net-(A1-Pad11)*%
X99035001Y-157653001D02*
X93734000Y-152352000D01*
X93734000Y-152352000D02*
X93734000Y-152308000D01*
%TO.N,Net-(A1-Pad27)*%
X119832000Y-129692000D02*
X119776999Y-129747001D01*
X91130000Y-131978000D02*
X91130000Y-134518000D01*
X119776999Y-129747001D02*
X93360999Y-129747001D01*
X91130000Y-142138000D02*
X91130000Y-144678000D01*
X93724000Y-167538000D02*
X93734000Y-167548000D01*
X114275001Y-139873001D02*
X116022000Y-141620000D01*
X119832000Y-129692000D02*
X115400002Y-134123998D01*
X91130000Y-162458000D02*
X91130000Y-164998000D01*
X91130000Y-154838000D02*
X91130000Y-157378000D01*
X91130000Y-137058000D02*
X91130000Y-139598000D01*
X91130000Y-144678000D02*
X91130000Y-147218000D01*
X91130000Y-149758000D02*
X91130000Y-152298000D01*
X116022000Y-141620000D02*
X116022000Y-143523590D01*
X91130000Y-139598000D02*
X91130000Y-142138000D01*
X91130000Y-170078000D02*
X91130000Y-167538000D01*
X91130000Y-147218000D02*
X91130000Y-149758000D01*
X91130000Y-152298000D02*
X91130000Y-154838000D01*
X91140000Y-167548000D02*
X91130000Y-167538000D01*
X93734000Y-170088000D02*
X93734000Y-167548000D01*
X116022000Y-143523590D02*
X119832000Y-147333590D01*
X91130000Y-157378000D02*
X91130000Y-159918000D01*
X93734000Y-167548000D02*
X91140000Y-167548000D01*
X91130000Y-159918000D02*
X91130000Y-162458000D01*
X91130000Y-134518000D02*
X91130000Y-137058000D01*
X93360999Y-129747001D02*
X91130000Y-131978000D01*
X91130000Y-167538000D02*
X91130000Y-164998000D01*
X115400002Y-138748000D02*
X114275001Y-139873001D01*
X115400002Y-134123998D02*
X115400002Y-138748000D01*
X119832000Y-147333590D02*
X119832000Y-147472000D01*
%TO.N,Net-(A1-Pad12)*%
X93734000Y-154892000D02*
X93734000Y-154848000D01*
X99035001Y-160193001D02*
X93734000Y-154892000D01*
%TO.N,Net-(A1-Pad13)*%
X117546000Y-139852000D02*
X116530000Y-138836000D01*
X93734000Y-157432000D02*
X93734000Y-157388000D01*
X110942000Y-139598000D02*
X110067001Y-140472999D01*
X101544000Y-160224002D02*
X99035001Y-162733001D01*
X101544000Y-144904998D02*
X101544000Y-160224002D01*
X105975999Y-140472999D02*
X101544000Y-144904998D01*
X99035001Y-162733001D02*
X93734000Y-157432000D01*
X110067001Y-140472999D02*
X105975999Y-140472999D01*
X119832000Y-139852000D02*
X117546000Y-139852000D01*
%TO.N,Net-(A1-Pad14)*%
X89884000Y-171898000D02*
X89884000Y-172738000D01*
X106324000Y-161568000D02*
X106324000Y-141198000D01*
X93734000Y-159972000D02*
X93734000Y-159928000D01*
X109664000Y-165078000D02*
X109664000Y-169318000D01*
X119832000Y-142392000D02*
X118562000Y-141122000D01*
X116530191Y-141122000D02*
X116539723Y-141112468D01*
X99035001Y-165273001D02*
X102618999Y-165273001D01*
X104878999Y-165273001D02*
X105764000Y-164388000D01*
X104682010Y-174299990D02*
X91445990Y-174299990D01*
X102618999Y-165273001D02*
X106324000Y-161568000D01*
X99035001Y-165273001D02*
X93734000Y-159972000D01*
X102618999Y-165273001D02*
X104878999Y-165273001D01*
X91445990Y-174299990D02*
X89884000Y-172738000D01*
X109664000Y-169318000D02*
X104682010Y-174299990D01*
X118562000Y-141122000D02*
X116530191Y-141122000D01*
%TO.N,Net-(A1-Pad15)*%
X99035001Y-167813001D02*
X103808999Y-167813001D01*
X111364000Y-131468000D02*
X111364000Y-135058000D01*
X99035001Y-167813001D02*
X93734000Y-162512000D01*
X93734000Y-162512000D02*
X93734000Y-162468000D01*
X99035001Y-170936999D02*
X97204000Y-172768000D01*
X103808999Y-167813001D02*
X103808999Y-167773001D01*
X99035001Y-167813001D02*
X99035001Y-170936999D01*
X111364000Y-135058000D02*
X108714000Y-137708000D01*
X97190000Y-173600000D02*
X92650000Y-173600000D01*
X103808999Y-167813001D02*
X104488999Y-167813001D01*
X112244000Y-160058000D02*
X112244000Y-138198000D01*
X104488999Y-167813001D02*
X112244000Y-160058000D01*
X108714000Y-137708000D02*
X108714000Y-137898000D01*
%TO.N,Net-(A1-Pad16)*%
X121864000Y-137312000D02*
X123388000Y-138836000D01*
X123388000Y-138836000D02*
X123388000Y-154330000D01*
X121393000Y-169316000D02*
X121734000Y-169316000D01*
X122150000Y-168900000D02*
X122850000Y-168900000D01*
X121734000Y-169316000D02*
X122150000Y-168900000D01*
X119832000Y-137312000D02*
X121864000Y-137312000D01*
X114508000Y-168046000D02*
X114275001Y-167813001D01*
X117546000Y-168046000D02*
X114508000Y-168046000D01*
%TO.N,Net-(S1-Pad1)*%
X93670000Y-124358000D02*
X93670000Y-128422000D01*
X93670000Y-124358000D02*
X100020000Y-124358000D01*
X100528000Y-123850000D02*
X108656000Y-123850000D01*
X109000000Y-124194000D02*
X109000000Y-126150000D01*
X108656000Y-123850000D02*
X109000000Y-124194000D01*
X100020000Y-124358000D02*
X100528000Y-123850000D01*
%TD*%
M02*
