%TF.GenerationSoftware,KiCad,Pcbnew,9.0.6*%
%TF.CreationDate,2026-01-10T11:23:17+01:00*%
%TF.ProjectId,NANO-ShieldV2,4e414e4f-2d53-4686-9965-6c6456322e6b,rev?*%
%TF.SameCoordinates,Original*%
%TF.FileFunction,Copper,L2,Bot*%
%TF.FilePolarity,Positive*%
%FSLAX46Y46*%
G04 Gerber Fmt 4.6, Leading zero omitted, Abs format (unit mm)*
G04 Created by KiCad (PCBNEW 9.0.6) date 2026-01-10 11:23:17*
%MOMM*%
%LPD*%
G01*
G04 APERTURE LIST*
%TA.AperFunction,ComponentPad*%
%ADD10R,1.600000X1.600000*%
%TD*%
%TA.AperFunction,ComponentPad*%
%ADD11O,1.600000X1.600000*%
%TD*%
%TA.AperFunction,ComponentPad*%
%ADD12C,2.000000*%
%TD*%
%TA.AperFunction,ComponentPad*%
%ADD13R,2.000000X2.000000*%
%TD*%
%TA.AperFunction,ViaPad*%
%ADD14C,0.800000*%
%TD*%
%TA.AperFunction,Conductor*%
%ADD15C,0.250000*%
%TD*%
G04 APERTURE END LIST*
D10*
%TO.P,A1,1*%
%TO.N,Net-(A1-Pad1)*%
X99035001Y-132253001D03*
D11*
%TO.P,A1,2*%
%TO.N,Net-(A1-Pad2)*%
X99035001Y-134793001D03*
%TO.P,A1,3*%
%TO.N,Net-(A1-Pad28)*%
X99035001Y-137333001D03*
%TO.P,A1,4*%
%TO.N,Net-(A1-Pad29)*%
X99035001Y-139873001D03*
%TO.P,A1,5*%
%TO.N,Net-(A1-Pad5)*%
X99035001Y-142413001D03*
%TO.P,A1,6*%
%TO.N,Net-(A1-Pad6)*%
X99035001Y-144953001D03*
%TO.P,A1,7*%
%TO.N,Net-(A1-Pad7)*%
X99035001Y-147493001D03*
%TO.P,A1,8*%
%TO.N,Net-(A1-Pad8)*%
X99035001Y-150033001D03*
%TO.P,A1,9*%
%TO.N,Net-(A1-Pad9)*%
X99035001Y-152573001D03*
%TO.P,A1,10*%
%TO.N,Net-(A1-Pad10)*%
X99035001Y-155113001D03*
%TO.P,A1,11*%
%TO.N,Net-(A1-Pad11)*%
X99035001Y-157653001D03*
%TO.P,A1,12*%
%TO.N,Net-(A1-Pad12)*%
X99035001Y-160193001D03*
%TO.P,A1,13*%
%TO.N,Net-(A1-Pad13)*%
X99035001Y-162733001D03*
%TO.P,A1,14*%
%TO.N,Net-(A1-Pad14)*%
X99035001Y-165273001D03*
%TO.P,A1,15*%
%TO.N,Net-(A1-Pad15)*%
X99035001Y-167813001D03*
%TO.P,A1,16*%
%TO.N,Net-(A1-Pad16)*%
X114275001Y-167813001D03*
%TO.P,A1,17*%
%TO.N,Net-(A1-Pad17)*%
X114275001Y-165273001D03*
%TO.P,A1,18*%
%TO.N,Net-(A1-Pad18)*%
X114275001Y-162733001D03*
%TO.P,A1,19*%
%TO.N,Net-(A1-Pad19)*%
X114275001Y-160193001D03*
%TO.P,A1,20*%
%TO.N,Net-(A1-Pad20)*%
X114275001Y-157653001D03*
%TO.P,A1,21*%
%TO.N,Net-(A1-Pad21)*%
X114275001Y-155113001D03*
%TO.P,A1,22*%
%TO.N,Net-(A1-Pad22)*%
X114275001Y-152573001D03*
%TO.P,A1,23*%
%TO.N,Net-(A1-Pad23)*%
X114275001Y-150033001D03*
%TO.P,A1,24*%
%TO.N,Net-(A1-Pad24)*%
X114275001Y-147493001D03*
%TO.P,A1,25*%
%TO.N,Net-(A1-Pad25)*%
X114275001Y-144953001D03*
%TO.P,A1,26*%
%TO.N,Net-(A1-Pad26)*%
X114275001Y-142413001D03*
%TO.P,A1,27*%
%TO.N,Net-(A1-Pad27)*%
X114275001Y-139873001D03*
%TO.P,A1,28*%
%TO.N,Net-(A1-Pad28)*%
X114275001Y-137333001D03*
%TO.P,A1,29*%
%TO.N,Net-(A1-Pad29)*%
X114275001Y-134793001D03*
%TO.P,A1,30*%
%TO.N,Net-(A1-Pad30)*%
X114275001Y-132253001D03*
%TD*%
D12*
%TO.P,J2,1*%
%TO.N,Net-(A1-Pad27)*%
X91130000Y-131978000D03*
%TO.P,J2,2*%
X91130000Y-134518000D03*
%TO.P,J2,3*%
X91130000Y-137058000D03*
%TO.P,J2,4*%
X91130000Y-139598000D03*
%TO.P,J2,5*%
X91130000Y-142138000D03*
%TO.P,J2,6*%
X91130000Y-144678000D03*
%TO.P,J2,7*%
X91130000Y-147218000D03*
%TO.P,J2,8*%
X91130000Y-149758000D03*
%TO.P,J2,9*%
X91130000Y-152298000D03*
%TO.P,J2,10*%
X91130000Y-154838000D03*
%TO.P,J2,11*%
X91130000Y-157378000D03*
%TO.P,J2,12*%
X91130000Y-159918000D03*
%TO.P,J2,13*%
X91130000Y-162458000D03*
%TO.P,J2,14*%
X91130000Y-164998000D03*
%TO.P,J2,15*%
X91130000Y-167538000D03*
%TO.P,J2,16*%
X91130000Y-170078000D03*
%TD*%
%TO.P,J3,1*%
%TO.N,Net-(A1-Pad2)*%
X93734000Y-131988000D03*
%TO.P,J3,2*%
%TO.N,Net-(A1-Pad1)*%
X93734000Y-134528000D03*
%TO.P,J3,3*%
%TO.N,Net-(A1-Pad5)*%
X93734000Y-137068000D03*
%TO.P,J3,4*%
%TO.N,Net-(A1-Pad6)*%
X93734000Y-139608000D03*
%TO.P,J3,5*%
%TO.N,Net-(A1-Pad7)*%
X93734000Y-142148000D03*
%TO.P,J3,6*%
%TO.N,Net-(A1-Pad8)*%
X93734000Y-144688000D03*
%TO.P,J3,7*%
%TO.N,Net-(A1-Pad9)*%
X93734000Y-147228000D03*
%TO.P,J3,8*%
%TO.N,Net-(A1-Pad10)*%
X93734000Y-149768000D03*
%TO.P,J3,9*%
%TO.N,Net-(A1-Pad11)*%
X93734000Y-152308000D03*
%TO.P,J3,10*%
%TO.N,Net-(A1-Pad12)*%
X93734000Y-154848000D03*
%TO.P,J3,11*%
%TO.N,Net-(A1-Pad13)*%
X93734000Y-157388000D03*
%TO.P,J3,12*%
%TO.N,Net-(A1-Pad14)*%
X93734000Y-159928000D03*
%TO.P,J3,13*%
%TO.N,Net-(A1-Pad15)*%
X93734000Y-162468000D03*
%TO.P,J3,14*%
%TO.N,Net-(A1-Pad16)*%
X93734000Y-165008000D03*
%TO.P,J3,15*%
%TO.N,Net-(A1-Pad27)*%
X93734000Y-167548000D03*
%TO.P,J3,16*%
X93734000Y-170088000D03*
%TD*%
%TO.P,J4,1*%
%TO.N,Net-(A1-Pad19)*%
X119832000Y-167792000D03*
%TO.P,J4,2*%
%TO.N,Net-(A1-Pad20)*%
X119832000Y-165252000D03*
%TO.P,J4,3*%
%TO.N,Net-(A1-Pad21)*%
X119832000Y-162712000D03*
%TO.P,J4,4*%
%TO.N,Net-(A1-Pad22)*%
X119832000Y-160172000D03*
%TO.P,J4,5*%
%TO.N,Net-(A1-Pad23)*%
X119832000Y-157632000D03*
%TO.P,J4,6*%
%TO.N,Net-(A1-Pad24)*%
X119832000Y-155092000D03*
%TO.P,J4,7*%
%TO.N,Net-(A1-Pad25)*%
X119832000Y-152552000D03*
%TO.P,J4,8*%
%TO.N,Net-(A1-Pad26)*%
X119832000Y-150012000D03*
%TO.P,J4,9*%
%TO.N,Net-(A1-Pad27)*%
X119832000Y-147472000D03*
%TO.P,J4,10*%
%TO.N,Net-(A1-Pad29)*%
X119832000Y-144932000D03*
%TO.P,J4,11*%
%TO.N,Net-(A1-Pad14)*%
X119832000Y-142392000D03*
%TO.P,J4,12*%
%TO.N,Net-(A1-Pad13)*%
X119832000Y-139852000D03*
%TO.P,J4,13*%
%TO.N,Net-(A1-Pad16)*%
X119832000Y-137312000D03*
%TO.P,J4,14*%
%TO.N,Net-(A1-Pad30)*%
X119832000Y-134772000D03*
%TO.P,J4,15*%
%TO.N,Net-(A1-Pad17)*%
X119832000Y-132232000D03*
%TO.P,J4,16*%
%TO.N,Net-(A1-Pad27)*%
X119832000Y-129692000D03*
%TD*%
%TO.P,GND,1*%
%TO.N,Net-(A1-Pad29)*%
X88590000Y-124358000D03*
D13*
%TO.P,GND,2*%
%TO.N,Net-(S1-Pad1)*%
X93670000Y-124358000D03*
%TD*%
D12*
%TO.P,J1,1*%
%TO.N,Net-(A1-Pad29)*%
X88590000Y-170078000D03*
%TO.P,J1,2*%
X88590000Y-167538000D03*
%TO.P,J1,3*%
X88590000Y-164998000D03*
%TO.P,J1,4*%
X88590000Y-162458000D03*
%TO.P,J1,5*%
X88590000Y-159918000D03*
%TO.P,J1,6*%
X88590000Y-157378000D03*
%TO.P,J1,7*%
X88590000Y-154838000D03*
%TO.P,J1,8*%
X88590000Y-152298000D03*
%TO.P,J1,9*%
X88590000Y-149758000D03*
%TO.P,J1,10*%
X88590000Y-147218000D03*
%TO.P,J1,11*%
X88590000Y-144678000D03*
%TO.P,J1,12*%
X88590000Y-142138000D03*
%TO.P,J1,13*%
X88590000Y-139598000D03*
%TO.P,J1,14*%
X88590000Y-137058000D03*
%TO.P,J1,15*%
X88590000Y-134518000D03*
%TO.P,J1,16*%
X88590000Y-131978000D03*
%TD*%
%TO.P,GND,1*%
%TO.N,Net-(A1-Pad29)*%
X88590000Y-128422000D03*
D13*
%TO.P,GND,2*%
%TO.N,Net-(S1-Pad1)*%
X93670000Y-128422000D03*
%TD*%
D12*
%TO.P,MOSI,1*%
%TO.N,Net-(A1-Pad14)*%
X113854000Y-126138000D03*
%TD*%
%TO.P,SDL,1*%
%TO.N,Net-(A1-Pad24)*%
X122314000Y-171856000D03*
%TD*%
%TO.P,MISO,1*%
%TO.N,Net-(A1-Pad15)*%
X92664000Y-172768000D03*
%TD*%
%TO.P,SDA,1*%
%TO.N,Net-(A1-Pad24)*%
X124874000Y-171856000D03*
%TD*%
%TO.P,LP,1*%
%TO.N,Net-(A1-Pad15)*%
X123034000Y-126138000D03*
%TD*%
%TO.P,Mircro_Schalter,1*%
%TO.N,N/C*%
X103920000Y-126150000D03*
%TO.P,Mircro_Schalter,2*%
%TO.N,Net-(A1-Pad30)*%
X106460000Y-126150000D03*
%TO.P,Mircro_Schalter,3*%
%TO.N,Net-(S1-Pad1)*%
X109000000Y-126150000D03*
%TD*%
%TO.P,SDA,1*%
%TO.N,Net-(A1-Pad23)*%
X119754000Y-171856000D03*
%TD*%
%TO.P,LP,1*%
%TO.N,Net-(A1-Pad15)*%
X120004000Y-126088000D03*
%TD*%
%TO.P,MISO,1*%
%TO.N,Net-(A1-Pad14)*%
X116874000Y-126088000D03*
%TD*%
%TO.P,SDA,1*%
%TO.N,Net-(A1-Pad23)*%
X117184000Y-171856000D03*
%TD*%
%TO.P,MOSI,1*%
%TO.N,Net-(A1-Pad14)*%
X89884000Y-172738000D03*
%TD*%
D14*
%TO.N,Net-(A1-Pad29)*%
X96404000Y-126478000D03*
X104004000Y-128668000D03*
%TO.N,Net-(A1-Pad13)*%
X110942000Y-139598000D03*
X116530000Y-138836000D03*
%TO.N,Net-(A1-Pad14)*%
X106324000Y-141198000D03*
X105764000Y-164388000D03*
X109664000Y-165078000D03*
X116539723Y-141112468D03*
%TO.N,Net-(A1-Pad15)*%
X112244000Y-138198000D03*
X108714000Y-137898000D03*
X111364000Y-131468000D03*
%TO.N,Net-(A1-Pad16)*%
X117546000Y-168046000D03*
X121393000Y-169316000D03*
X122850000Y-168900000D03*
X123388000Y-154330000D03*
%TD*%
D15*
%TO.N,Net-(A1-Pad17)*%
X116784000Y-167782000D02*
X114275001Y-165273001D01*
X117546000Y-170078000D02*
X116784000Y-169316000D01*
X119832000Y-132232000D02*
X122118000Y-132232000D01*
X122118000Y-170078000D02*
X117546000Y-170078000D01*
X116784000Y-169316000D02*
X116784000Y-167782000D01*
X122118000Y-132232000D02*
X122118000Y-170078000D01*
%TO.N,Net-(A1-Pad2)*%
X96230000Y-131988000D02*
X99035001Y-134793001D01*
X93734000Y-131988000D02*
X96230000Y-131988000D01*
%TO.N,Net-(A1-Pad18)*%
X114275001Y-162733001D02*
X115400002Y-161608000D01*
X115400002Y-161608000D02*
X115400002Y-151903998D01*
%TO.N,Net-(A1-Pad28)*%
X100338999Y-137333001D02*
X101594000Y-136078000D01*
X101594000Y-136078000D02*
X113020000Y-136078000D01*
X113020000Y-136078000D02*
X114275001Y-137333001D01*
X99035001Y-137333001D02*
X100338999Y-137333001D01*
%TO.N,Net-(A1-Pad29)*%
X88590000Y-139598000D02*
X88590000Y-142138000D01*
X117292000Y-143662000D02*
X117292000Y-137810000D01*
X88590000Y-128422000D02*
X88590000Y-131978000D01*
X88590000Y-162458000D02*
X88590000Y-164998000D01*
X116154000Y-136672000D02*
X114275001Y-134793001D01*
X88590000Y-142138000D02*
X88590000Y-144678000D01*
X106939001Y-134793001D02*
X104004000Y-131858000D01*
X88590000Y-164998000D02*
X88590000Y-167538000D01*
X116276000Y-136794000D02*
X116154000Y-136672000D01*
X88590000Y-137058000D02*
X88590000Y-139598000D01*
X88590000Y-154838000D02*
X88590000Y-157378000D01*
X88590000Y-124358000D02*
X88590000Y-128422000D01*
X88590000Y-147218000D02*
X88590000Y-149758000D01*
X88590000Y-159918000D02*
X88590000Y-162458000D01*
X91154000Y-126478000D02*
X89034000Y-124358000D01*
X88590000Y-131978000D02*
X88590000Y-134518000D01*
X88590000Y-152298000D02*
X88590000Y-154838000D01*
X104004000Y-131858000D02*
X104004000Y-128668000D01*
X117292000Y-137810000D02*
X116154000Y-136672000D01*
X96404000Y-126478000D02*
X91154000Y-126478000D01*
X88590000Y-144678000D02*
X88590000Y-147218000D01*
X119832000Y-144932000D02*
X118308000Y-144932000D01*
X88590000Y-167538000D02*
X88590000Y-170078000D01*
X118308000Y-144932000D02*
X118308000Y-144678000D01*
X89034000Y-124358000D02*
X88590000Y-124358000D01*
X88590000Y-149758000D02*
X88590000Y-152298000D01*
X118308000Y-144678000D02*
X117292000Y-143662000D01*
X114275001Y-134793001D02*
X106939001Y-134793001D01*
X88590000Y-134518000D02*
X88590000Y-137058000D01*
X88590000Y-157378000D02*
X88590000Y-159918000D01*
%TO.N,Net-(A1-Pad13)*%
X111917002Y-139598000D02*
X110942000Y-139598000D01*
X116530000Y-138836000D02*
X116442000Y-138748000D01*
X116442000Y-138748000D02*
X112767002Y-138748000D01*
X112767002Y-138748000D02*
X111917002Y-139598000D01*
%TO.N,Net-(A1-Pad14)*%
X109800001Y-124556999D02*
X110489001Y-125245999D01*
X103584002Y-138458002D02*
X98495000Y-138458002D01*
X116539723Y-141112468D02*
X106409532Y-141112468D01*
X109664000Y-164758000D02*
X109664000Y-165078000D01*
X106324000Y-141198000D02*
X103584002Y-138458002D01*
X109294000Y-164388000D02*
X109664000Y-164758000D01*
X97910000Y-136793000D02*
X98495000Y-136208000D01*
X106409532Y-141112468D02*
X106324000Y-141198000D01*
X97910000Y-137873002D02*
X97910000Y-136793000D01*
X103447999Y-124556999D02*
X109800001Y-124556999D01*
X98495000Y-136208000D02*
X99575002Y-136208000D01*
X110489001Y-129502999D02*
X110444000Y-129548000D01*
X98495000Y-138458002D02*
X97910000Y-137873002D01*
X99575002Y-136208000D02*
X102255002Y-133528000D01*
X102255002Y-125749996D02*
X103447999Y-124556999D01*
X113854000Y-126138000D02*
X110444000Y-129548000D01*
X116874000Y-126088000D02*
X113904000Y-126088000D01*
X110444000Y-129548000D02*
X109724000Y-130268000D01*
X110489001Y-125245999D02*
X110489001Y-129502999D01*
X113904000Y-126088000D02*
X113854000Y-126138000D01*
X105764000Y-164388000D02*
X109294000Y-164388000D01*
X102255002Y-133528000D02*
X102255002Y-125749996D01*
%TO.N,Net-(A1-Pad30)*%
X109947001Y-132253001D02*
X114275001Y-132253001D01*
X106460000Y-126150000D02*
X106460000Y-128766000D01*
X116794000Y-134772000D02*
X114275001Y-132253001D01*
X119832000Y-134772000D02*
X116794000Y-134772000D01*
X106460000Y-128766000D02*
X109947001Y-132253001D01*
%TO.N,Net-(A1-Pad15)*%
X123034000Y-126138000D02*
X120054000Y-126138000D01*
X117234000Y-128858000D02*
X112824000Y-128858000D01*
X111364000Y-130318000D02*
X111364000Y-131468000D01*
X112824000Y-128858000D02*
X111364000Y-130318000D01*
X120004000Y-126088000D02*
X117234000Y-128858000D01*
X120054000Y-126138000D02*
X120004000Y-126088000D01*
X111944000Y-137898000D02*
X112244000Y-138198000D01*
X108714000Y-137898000D02*
X111944000Y-137898000D01*
%TO.N,Net-(A1-Pad16)*%
X123388000Y-168808000D02*
X122942000Y-168808000D01*
X114275001Y-167813001D02*
X112860002Y-166398002D01*
X122942000Y-168808000D02*
X122850000Y-168900000D01*
X118816000Y-169316000D02*
X117546000Y-168046000D01*
X95124002Y-166398002D02*
X93734000Y-165008000D01*
X123388000Y-154330000D02*
X123388000Y-168808000D01*
X121393000Y-169316000D02*
X118816000Y-169316000D01*
X112860002Y-166398002D02*
X95124002Y-166398002D01*
%TD*%
M02*
