%TF.GenerationSoftware,KiCad,Pcbnew,9.0.6*%
%TF.CreationDate,2026-01-10T11:23:17+01:00*%
%TF.ProjectId,NANO-ShieldV2,4e414e4f-2d53-4686-9965-6c6456322e6b,rev?*%
%TF.SameCoordinates,Original*%
%TF.FileFunction,Legend,Top*%
%TF.FilePolarity,Positive*%
%FSLAX46Y46*%
G04 Gerber Fmt 4.6, Leading zero omitted, Abs format (unit mm)*
G04 Created by KiCad (PCBNEW 9.0.6) date 2026-01-10 11:23:17*
%MOMM*%
%LPD*%
G01*
G04 APERTURE LIST*
%ADD10C,0.120000*%
%ADD11C,0.150000*%
%ADD12C,0.200000*%
G04 APERTURE END LIST*
D10*
X86812000Y-129692000D02*
X86812000Y-123088000D01*
X90050000Y-166450000D02*
X90050000Y-171200000D01*
X90050000Y-171200000D02*
X97635001Y-171200000D01*
X89700000Y-166450000D02*
X89700000Y-171200000D01*
X89700000Y-171200000D02*
X83850000Y-171200000D01*
X95448000Y-129692000D02*
X86812000Y-129692000D01*
X89700000Y-166450000D02*
X83850000Y-166450000D01*
X86812000Y-123088000D02*
X95448000Y-123088000D01*
X95448000Y-129692000D02*
X95448000Y-123088000D01*
X90050000Y-166450000D02*
X97650000Y-166450000D01*
X83850000Y-166450000D02*
X83850000Y-171200000D01*
D11*
X84787904Y-167120438D02*
X84692666Y-167072819D01*
X84692666Y-167072819D02*
X84549809Y-167072819D01*
X84549809Y-167072819D02*
X84406952Y-167120438D01*
X84406952Y-167120438D02*
X84311714Y-167215676D01*
X84311714Y-167215676D02*
X84264095Y-167310914D01*
X84264095Y-167310914D02*
X84216476Y-167501390D01*
X84216476Y-167501390D02*
X84216476Y-167644247D01*
X84216476Y-167644247D02*
X84264095Y-167834723D01*
X84264095Y-167834723D02*
X84311714Y-167929961D01*
X84311714Y-167929961D02*
X84406952Y-168025200D01*
X84406952Y-168025200D02*
X84549809Y-168072819D01*
X84549809Y-168072819D02*
X84645047Y-168072819D01*
X84645047Y-168072819D02*
X84787904Y-168025200D01*
X84787904Y-168025200D02*
X84835523Y-167977580D01*
X84835523Y-167977580D02*
X84835523Y-167644247D01*
X84835523Y-167644247D02*
X84645047Y-167644247D01*
X85264095Y-168072819D02*
X85264095Y-167072819D01*
X85264095Y-167072819D02*
X85835523Y-168072819D01*
X85835523Y-168072819D02*
X85835523Y-167072819D01*
X86311714Y-168072819D02*
X86311714Y-167072819D01*
X86311714Y-167072819D02*
X86549809Y-167072819D01*
X86549809Y-167072819D02*
X86692666Y-167120438D01*
X86692666Y-167120438D02*
X86787904Y-167215676D01*
X86787904Y-167215676D02*
X86835523Y-167310914D01*
X86835523Y-167310914D02*
X86883142Y-167501390D01*
X86883142Y-167501390D02*
X86883142Y-167644247D01*
X86883142Y-167644247D02*
X86835523Y-167834723D01*
X86835523Y-167834723D02*
X86787904Y-167929961D01*
X86787904Y-167929961D02*
X86692666Y-168025200D01*
X86692666Y-168025200D02*
X86549809Y-168072819D01*
X86549809Y-168072819D02*
X86311714Y-168072819D01*
X123485714Y-150109104D02*
X123961904Y-150109104D01*
X123390476Y-150394819D02*
X123723809Y-149394819D01*
X123723809Y-149394819D02*
X124057142Y-150394819D01*
X124295238Y-149394819D02*
X124961904Y-149394819D01*
X124961904Y-149394819D02*
X124533333Y-150394819D01*
D12*
X123886904Y-140184063D02*
X123839285Y-140231683D01*
X123839285Y-140231683D02*
X123696428Y-140279302D01*
X123696428Y-140279302D02*
X123601190Y-140279302D01*
X123601190Y-140279302D02*
X123458333Y-140231683D01*
X123458333Y-140231683D02*
X123363095Y-140136444D01*
X123363095Y-140136444D02*
X123315476Y-140041206D01*
X123315476Y-140041206D02*
X123267857Y-139850730D01*
X123267857Y-139850730D02*
X123267857Y-139707873D01*
X123267857Y-139707873D02*
X123315476Y-139517397D01*
X123315476Y-139517397D02*
X123363095Y-139422159D01*
X123363095Y-139422159D02*
X123458333Y-139326921D01*
X123458333Y-139326921D02*
X123601190Y-139279302D01*
X123601190Y-139279302D02*
X123696428Y-139279302D01*
X123696428Y-139279302D02*
X123839285Y-139326921D01*
X123839285Y-139326921D02*
X123886904Y-139374540D01*
X124267857Y-140231683D02*
X124410714Y-140279302D01*
X124410714Y-140279302D02*
X124648809Y-140279302D01*
X124648809Y-140279302D02*
X124744047Y-140231683D01*
X124744047Y-140231683D02*
X124791666Y-140184063D01*
X124791666Y-140184063D02*
X124839285Y-140088825D01*
X124839285Y-140088825D02*
X124839285Y-139993587D01*
X124839285Y-139993587D02*
X124791666Y-139898349D01*
X124791666Y-139898349D02*
X124744047Y-139850730D01*
X124744047Y-139850730D02*
X124648809Y-139803111D01*
X124648809Y-139803111D02*
X124458333Y-139755492D01*
X124458333Y-139755492D02*
X124363095Y-139707873D01*
X124363095Y-139707873D02*
X124315476Y-139660254D01*
X124315476Y-139660254D02*
X124267857Y-139565016D01*
X124267857Y-139565016D02*
X124267857Y-139469778D01*
X124267857Y-139469778D02*
X124315476Y-139374540D01*
X124315476Y-139374540D02*
X124363095Y-139326921D01*
X124363095Y-139326921D02*
X124458333Y-139279302D01*
X124458333Y-139279302D02*
X124696428Y-139279302D01*
X124696428Y-139279302D02*
X124839285Y-139326921D01*
X122738095Y-144649838D02*
X122642857Y-144602219D01*
X122642857Y-144602219D02*
X122500000Y-144602219D01*
X122500000Y-144602219D02*
X122357143Y-144649838D01*
X122357143Y-144649838D02*
X122261905Y-144745076D01*
X122261905Y-144745076D02*
X122214286Y-144840314D01*
X122214286Y-144840314D02*
X122166667Y-145030790D01*
X122166667Y-145030790D02*
X122166667Y-145173647D01*
X122166667Y-145173647D02*
X122214286Y-145364123D01*
X122214286Y-145364123D02*
X122261905Y-145459361D01*
X122261905Y-145459361D02*
X122357143Y-145554600D01*
X122357143Y-145554600D02*
X122500000Y-145602219D01*
X122500000Y-145602219D02*
X122595238Y-145602219D01*
X122595238Y-145602219D02*
X122738095Y-145554600D01*
X122738095Y-145554600D02*
X122785714Y-145506980D01*
X122785714Y-145506980D02*
X122785714Y-145173647D01*
X122785714Y-145173647D02*
X122595238Y-145173647D01*
X123214286Y-145602219D02*
X123214286Y-144602219D01*
X123214286Y-144602219D02*
X123785714Y-145602219D01*
X123785714Y-145602219D02*
X123785714Y-144602219D01*
X124261905Y-145602219D02*
X124261905Y-144602219D01*
X124261905Y-144602219D02*
X124500000Y-144602219D01*
X124500000Y-144602219D02*
X124642857Y-144649838D01*
X124642857Y-144649838D02*
X124738095Y-144745076D01*
X124738095Y-144745076D02*
X124785714Y-144840314D01*
X124785714Y-144840314D02*
X124833333Y-145030790D01*
X124833333Y-145030790D02*
X124833333Y-145173647D01*
X124833333Y-145173647D02*
X124785714Y-145364123D01*
X124785714Y-145364123D02*
X124738095Y-145459361D01*
X124738095Y-145459361D02*
X124642857Y-145554600D01*
X124642857Y-145554600D02*
X124500000Y-145602219D01*
X124500000Y-145602219D02*
X124261905Y-145602219D01*
D11*
X122961905Y-134046736D02*
X123295238Y-135046736D01*
X123295238Y-135046736D02*
X123628571Y-134046736D01*
X123961905Y-135046736D02*
X123961905Y-134380069D01*
X123961905Y-134046736D02*
X123914286Y-134094355D01*
X123914286Y-134094355D02*
X123961905Y-134141974D01*
X123961905Y-134141974D02*
X124009524Y-134094355D01*
X124009524Y-134094355D02*
X123961905Y-134046736D01*
X123961905Y-134046736D02*
X123961905Y-134141974D01*
X124438095Y-134380069D02*
X124438095Y-135046736D01*
X124438095Y-134475307D02*
X124485714Y-134427688D01*
X124485714Y-134427688D02*
X124580952Y-134380069D01*
X124580952Y-134380069D02*
X124723809Y-134380069D01*
X124723809Y-134380069D02*
X124819047Y-134427688D01*
X124819047Y-134427688D02*
X124866666Y-134522926D01*
X124866666Y-134522926D02*
X124866666Y-135046736D01*
X122009524Y-131560777D02*
X122628571Y-131560777D01*
X122628571Y-131560777D02*
X122295238Y-131941729D01*
X122295238Y-131941729D02*
X122438095Y-131941729D01*
X122438095Y-131941729D02*
X122533333Y-131989348D01*
X122533333Y-131989348D02*
X122580952Y-132036967D01*
X122580952Y-132036967D02*
X122628571Y-132132205D01*
X122628571Y-132132205D02*
X122628571Y-132370300D01*
X122628571Y-132370300D02*
X122580952Y-132465538D01*
X122580952Y-132465538D02*
X122533333Y-132513158D01*
X122533333Y-132513158D02*
X122438095Y-132560777D01*
X122438095Y-132560777D02*
X122152381Y-132560777D01*
X122152381Y-132560777D02*
X122057143Y-132513158D01*
X122057143Y-132513158D02*
X122009524Y-132465538D01*
X123104762Y-132513158D02*
X123104762Y-132560777D01*
X123104762Y-132560777D02*
X123057143Y-132656015D01*
X123057143Y-132656015D02*
X123009524Y-132703634D01*
X123438095Y-131560777D02*
X124057142Y-131560777D01*
X124057142Y-131560777D02*
X123723809Y-131941729D01*
X123723809Y-131941729D02*
X123866666Y-131941729D01*
X123866666Y-131941729D02*
X123961904Y-131989348D01*
X123961904Y-131989348D02*
X124009523Y-132036967D01*
X124009523Y-132036967D02*
X124057142Y-132132205D01*
X124057142Y-132132205D02*
X124057142Y-132370300D01*
X124057142Y-132370300D02*
X124009523Y-132465538D01*
X124009523Y-132465538D02*
X123961904Y-132513158D01*
X123961904Y-132513158D02*
X123866666Y-132560777D01*
X123866666Y-132560777D02*
X123580952Y-132560777D01*
X123580952Y-132560777D02*
X123485714Y-132513158D01*
X123485714Y-132513158D02*
X123438095Y-132465538D01*
X124342857Y-131560777D02*
X124676190Y-132560777D01*
X124676190Y-132560777D02*
X125009523Y-131560777D01*
X123485714Y-167889104D02*
X123961904Y-167889104D01*
X123390476Y-168174819D02*
X123723809Y-167174819D01*
X123723809Y-167174819D02*
X124057142Y-168174819D01*
X124580952Y-167174819D02*
X124676190Y-167174819D01*
X124676190Y-167174819D02*
X124771428Y-167222438D01*
X124771428Y-167222438D02*
X124819047Y-167270057D01*
X124819047Y-167270057D02*
X124866666Y-167365295D01*
X124866666Y-167365295D02*
X124914285Y-167555771D01*
X124914285Y-167555771D02*
X124914285Y-167793866D01*
X124914285Y-167793866D02*
X124866666Y-167984342D01*
X124866666Y-167984342D02*
X124819047Y-168079580D01*
X124819047Y-168079580D02*
X124771428Y-168127200D01*
X124771428Y-168127200D02*
X124676190Y-168174819D01*
X124676190Y-168174819D02*
X124580952Y-168174819D01*
X124580952Y-168174819D02*
X124485714Y-168127200D01*
X124485714Y-168127200D02*
X124438095Y-168079580D01*
X124438095Y-168079580D02*
X124390476Y-167984342D01*
X124390476Y-167984342D02*
X124342857Y-167793866D01*
X124342857Y-167793866D02*
X124342857Y-167555771D01*
X124342857Y-167555771D02*
X124390476Y-167365295D01*
X124390476Y-167365295D02*
X124438095Y-167270057D01*
X124438095Y-167270057D02*
X124485714Y-167222438D01*
X124485714Y-167222438D02*
X124580952Y-167174819D01*
X123485714Y-165349104D02*
X123961904Y-165349104D01*
X123390476Y-165634819D02*
X123723809Y-164634819D01*
X123723809Y-164634819D02*
X124057142Y-165634819D01*
X124914285Y-165634819D02*
X124342857Y-165634819D01*
X124628571Y-165634819D02*
X124628571Y-164634819D01*
X124628571Y-164634819D02*
X124533333Y-164777676D01*
X124533333Y-164777676D02*
X124438095Y-164872914D01*
X124438095Y-164872914D02*
X124342857Y-164920533D01*
X123485714Y-162809104D02*
X123961904Y-162809104D01*
X123390476Y-163094819D02*
X123723809Y-162094819D01*
X123723809Y-162094819D02*
X124057142Y-163094819D01*
X124342857Y-162190057D02*
X124390476Y-162142438D01*
X124390476Y-162142438D02*
X124485714Y-162094819D01*
X124485714Y-162094819D02*
X124723809Y-162094819D01*
X124723809Y-162094819D02*
X124819047Y-162142438D01*
X124819047Y-162142438D02*
X124866666Y-162190057D01*
X124866666Y-162190057D02*
X124914285Y-162285295D01*
X124914285Y-162285295D02*
X124914285Y-162380533D01*
X124914285Y-162380533D02*
X124866666Y-162523390D01*
X124866666Y-162523390D02*
X124295238Y-163094819D01*
X124295238Y-163094819D02*
X124914285Y-163094819D01*
X123485714Y-152649104D02*
X123961904Y-152649104D01*
X123390476Y-152934819D02*
X123723809Y-151934819D01*
X123723809Y-151934819D02*
X124057142Y-152934819D01*
X124819047Y-151934819D02*
X124628571Y-151934819D01*
X124628571Y-151934819D02*
X124533333Y-151982438D01*
X124533333Y-151982438D02*
X124485714Y-152030057D01*
X124485714Y-152030057D02*
X124390476Y-152172914D01*
X124390476Y-152172914D02*
X124342857Y-152363390D01*
X124342857Y-152363390D02*
X124342857Y-152744342D01*
X124342857Y-152744342D02*
X124390476Y-152839580D01*
X124390476Y-152839580D02*
X124438095Y-152887200D01*
X124438095Y-152887200D02*
X124533333Y-152934819D01*
X124533333Y-152934819D02*
X124723809Y-152934819D01*
X124723809Y-152934819D02*
X124819047Y-152887200D01*
X124819047Y-152887200D02*
X124866666Y-152839580D01*
X124866666Y-152839580D02*
X124914285Y-152744342D01*
X124914285Y-152744342D02*
X124914285Y-152506247D01*
X124914285Y-152506247D02*
X124866666Y-152411009D01*
X124866666Y-152411009D02*
X124819047Y-152363390D01*
X124819047Y-152363390D02*
X124723809Y-152315771D01*
X124723809Y-152315771D02*
X124533333Y-152315771D01*
X124533333Y-152315771D02*
X124438095Y-152363390D01*
X124438095Y-152363390D02*
X124390476Y-152411009D01*
X124390476Y-152411009D02*
X124342857Y-152506247D01*
D12*
X123029761Y-137522605D02*
X122982142Y-137570225D01*
X122982142Y-137570225D02*
X122839285Y-137617844D01*
X122839285Y-137617844D02*
X122744047Y-137617844D01*
X122744047Y-137617844D02*
X122601190Y-137570225D01*
X122601190Y-137570225D02*
X122505952Y-137474986D01*
X122505952Y-137474986D02*
X122458333Y-137379748D01*
X122458333Y-137379748D02*
X122410714Y-137189272D01*
X122410714Y-137189272D02*
X122410714Y-137046415D01*
X122410714Y-137046415D02*
X122458333Y-136855939D01*
X122458333Y-136855939D02*
X122505952Y-136760701D01*
X122505952Y-136760701D02*
X122601190Y-136665463D01*
X122601190Y-136665463D02*
X122744047Y-136617844D01*
X122744047Y-136617844D02*
X122839285Y-136617844D01*
X122839285Y-136617844D02*
X122982142Y-136665463D01*
X122982142Y-136665463D02*
X123029761Y-136713082D01*
X123934523Y-137617844D02*
X123458333Y-137617844D01*
X123458333Y-137617844D02*
X123458333Y-136617844D01*
X124267857Y-137617844D02*
X124267857Y-136617844D01*
X124839285Y-137617844D02*
X124410714Y-137046415D01*
X124839285Y-136617844D02*
X124267857Y-137189272D01*
D11*
X123485714Y-155189104D02*
X123961904Y-155189104D01*
X123390476Y-155474819D02*
X123723809Y-154474819D01*
X123723809Y-154474819D02*
X124057142Y-155474819D01*
X124866666Y-154474819D02*
X124390476Y-154474819D01*
X124390476Y-154474819D02*
X124342857Y-154951009D01*
X124342857Y-154951009D02*
X124390476Y-154903390D01*
X124390476Y-154903390D02*
X124485714Y-154855771D01*
X124485714Y-154855771D02*
X124723809Y-154855771D01*
X124723809Y-154855771D02*
X124819047Y-154903390D01*
X124819047Y-154903390D02*
X124866666Y-154951009D01*
X124866666Y-154951009D02*
X124914285Y-155046247D01*
X124914285Y-155046247D02*
X124914285Y-155284342D01*
X124914285Y-155284342D02*
X124866666Y-155379580D01*
X124866666Y-155379580D02*
X124819047Y-155427200D01*
X124819047Y-155427200D02*
X124723809Y-155474819D01*
X124723809Y-155474819D02*
X124485714Y-155474819D01*
X124485714Y-155474819D02*
X124390476Y-155427200D01*
X124390476Y-155427200D02*
X124342857Y-155379580D01*
D12*
X122744048Y-142940761D02*
X122744048Y-141940761D01*
X122744048Y-141940761D02*
X122982143Y-141940761D01*
X122982143Y-141940761D02*
X123125000Y-141988380D01*
X123125000Y-141988380D02*
X123220238Y-142083618D01*
X123220238Y-142083618D02*
X123267857Y-142178856D01*
X123267857Y-142178856D02*
X123315476Y-142369332D01*
X123315476Y-142369332D02*
X123315476Y-142512189D01*
X123315476Y-142512189D02*
X123267857Y-142702665D01*
X123267857Y-142702665D02*
X123220238Y-142797903D01*
X123220238Y-142797903D02*
X123125000Y-142893142D01*
X123125000Y-142893142D02*
X122982143Y-142940761D01*
X122982143Y-142940761D02*
X122744048Y-142940761D01*
X123744048Y-142940761D02*
X123744048Y-141940761D01*
X124220238Y-142940761D02*
X124220238Y-141940761D01*
X124220238Y-141940761D02*
X124791666Y-142940761D01*
X124791666Y-142940761D02*
X124791666Y-141940761D01*
D11*
X123485714Y-157729104D02*
X123961904Y-157729104D01*
X123390476Y-158014819D02*
X123723809Y-157014819D01*
X123723809Y-157014819D02*
X124057142Y-158014819D01*
X124819047Y-157348152D02*
X124819047Y-158014819D01*
X124580952Y-156967200D02*
X124342857Y-157681485D01*
X124342857Y-157681485D02*
X124961904Y-157681485D01*
X122295238Y-129693866D02*
X123057143Y-129693866D01*
X122676190Y-130074819D02*
X122676190Y-129312914D01*
X124009523Y-129074819D02*
X123533333Y-129074819D01*
X123533333Y-129074819D02*
X123485714Y-129551009D01*
X123485714Y-129551009D02*
X123533333Y-129503390D01*
X123533333Y-129503390D02*
X123628571Y-129455771D01*
X123628571Y-129455771D02*
X123866666Y-129455771D01*
X123866666Y-129455771D02*
X123961904Y-129503390D01*
X123961904Y-129503390D02*
X124009523Y-129551009D01*
X124009523Y-129551009D02*
X124057142Y-129646247D01*
X124057142Y-129646247D02*
X124057142Y-129884342D01*
X124057142Y-129884342D02*
X124009523Y-129979580D01*
X124009523Y-129979580D02*
X123961904Y-130027200D01*
X123961904Y-130027200D02*
X123866666Y-130074819D01*
X123866666Y-130074819D02*
X123628571Y-130074819D01*
X123628571Y-130074819D02*
X123533333Y-130027200D01*
X123533333Y-130027200D02*
X123485714Y-129979580D01*
X124342857Y-129074819D02*
X124676190Y-130074819D01*
X124676190Y-130074819D02*
X125009523Y-129074819D01*
X123485714Y-160269104D02*
X123961904Y-160269104D01*
X123390476Y-160554819D02*
X123723809Y-159554819D01*
X123723809Y-159554819D02*
X124057142Y-160554819D01*
X124295238Y-159554819D02*
X124914285Y-159554819D01*
X124914285Y-159554819D02*
X124580952Y-159935771D01*
X124580952Y-159935771D02*
X124723809Y-159935771D01*
X124723809Y-159935771D02*
X124819047Y-159983390D01*
X124819047Y-159983390D02*
X124866666Y-160031009D01*
X124866666Y-160031009D02*
X124914285Y-160126247D01*
X124914285Y-160126247D02*
X124914285Y-160364342D01*
X124914285Y-160364342D02*
X124866666Y-160459580D01*
X124866666Y-160459580D02*
X124819047Y-160507200D01*
X124819047Y-160507200D02*
X124723809Y-160554819D01*
X124723809Y-160554819D02*
X124438095Y-160554819D01*
X124438095Y-160554819D02*
X124342857Y-160507200D01*
X124342857Y-160507200D02*
X124295238Y-160459580D01*
X104854095Y-172580819D02*
X104854095Y-173390342D01*
X104854095Y-173390342D02*
X104901714Y-173485580D01*
X104901714Y-173485580D02*
X104949333Y-173533200D01*
X104949333Y-173533200D02*
X105044571Y-173580819D01*
X105044571Y-173580819D02*
X105235047Y-173580819D01*
X105235047Y-173580819D02*
X105330285Y-173533200D01*
X105330285Y-173533200D02*
X105377904Y-173485580D01*
X105377904Y-173485580D02*
X105425523Y-173390342D01*
X105425523Y-173390342D02*
X105425523Y-172580819D01*
X105854095Y-173533200D02*
X105996952Y-173580819D01*
X105996952Y-173580819D02*
X106235047Y-173580819D01*
X106235047Y-173580819D02*
X106330285Y-173533200D01*
X106330285Y-173533200D02*
X106377904Y-173485580D01*
X106377904Y-173485580D02*
X106425523Y-173390342D01*
X106425523Y-173390342D02*
X106425523Y-173295104D01*
X106425523Y-173295104D02*
X106377904Y-173199866D01*
X106377904Y-173199866D02*
X106330285Y-173152247D01*
X106330285Y-173152247D02*
X106235047Y-173104628D01*
X106235047Y-173104628D02*
X106044571Y-173057009D01*
X106044571Y-173057009D02*
X105949333Y-173009390D01*
X105949333Y-173009390D02*
X105901714Y-172961771D01*
X105901714Y-172961771D02*
X105854095Y-172866533D01*
X105854095Y-172866533D02*
X105854095Y-172771295D01*
X105854095Y-172771295D02*
X105901714Y-172676057D01*
X105901714Y-172676057D02*
X105949333Y-172628438D01*
X105949333Y-172628438D02*
X106044571Y-172580819D01*
X106044571Y-172580819D02*
X106282666Y-172580819D01*
X106282666Y-172580819D02*
X106425523Y-172628438D01*
X107187428Y-173057009D02*
X107330285Y-173104628D01*
X107330285Y-173104628D02*
X107377904Y-173152247D01*
X107377904Y-173152247D02*
X107425523Y-173247485D01*
X107425523Y-173247485D02*
X107425523Y-173390342D01*
X107425523Y-173390342D02*
X107377904Y-173485580D01*
X107377904Y-173485580D02*
X107330285Y-173533200D01*
X107330285Y-173533200D02*
X107235047Y-173580819D01*
X107235047Y-173580819D02*
X106854095Y-173580819D01*
X106854095Y-173580819D02*
X106854095Y-172580819D01*
X106854095Y-172580819D02*
X107187428Y-172580819D01*
X107187428Y-172580819D02*
X107282666Y-172628438D01*
X107282666Y-172628438D02*
X107330285Y-172676057D01*
X107330285Y-172676057D02*
X107377904Y-172771295D01*
X107377904Y-172771295D02*
X107377904Y-172866533D01*
X107377904Y-172866533D02*
X107330285Y-172961771D01*
X107330285Y-172961771D02*
X107282666Y-173009390D01*
X107282666Y-173009390D02*
X107187428Y-173057009D01*
X107187428Y-173057009D02*
X106854095Y-173057009D01*
X84406952Y-152181390D02*
X84311714Y-152133771D01*
X84311714Y-152133771D02*
X84264095Y-152086152D01*
X84264095Y-152086152D02*
X84216476Y-151990914D01*
X84216476Y-151990914D02*
X84216476Y-151943295D01*
X84216476Y-151943295D02*
X84264095Y-151848057D01*
X84264095Y-151848057D02*
X84311714Y-151800438D01*
X84311714Y-151800438D02*
X84406952Y-151752819D01*
X84406952Y-151752819D02*
X84597428Y-151752819D01*
X84597428Y-151752819D02*
X84692666Y-151800438D01*
X84692666Y-151800438D02*
X84740285Y-151848057D01*
X84740285Y-151848057D02*
X84787904Y-151943295D01*
X84787904Y-151943295D02*
X84787904Y-151990914D01*
X84787904Y-151990914D02*
X84740285Y-152086152D01*
X84740285Y-152086152D02*
X84692666Y-152133771D01*
X84692666Y-152133771D02*
X84597428Y-152181390D01*
X84597428Y-152181390D02*
X84406952Y-152181390D01*
X84406952Y-152181390D02*
X84311714Y-152229009D01*
X84311714Y-152229009D02*
X84264095Y-152276628D01*
X84264095Y-152276628D02*
X84216476Y-152371866D01*
X84216476Y-152371866D02*
X84216476Y-152562342D01*
X84216476Y-152562342D02*
X84264095Y-152657580D01*
X84264095Y-152657580D02*
X84311714Y-152705200D01*
X84311714Y-152705200D02*
X84406952Y-152752819D01*
X84406952Y-152752819D02*
X84597428Y-152752819D01*
X84597428Y-152752819D02*
X84692666Y-152705200D01*
X84692666Y-152705200D02*
X84740285Y-152657580D01*
X84740285Y-152657580D02*
X84787904Y-152562342D01*
X84787904Y-152562342D02*
X84787904Y-152371866D01*
X84787904Y-152371866D02*
X84740285Y-152276628D01*
X84740285Y-152276628D02*
X84692666Y-152229009D01*
X84692666Y-152229009D02*
X84597428Y-152181390D01*
X92685905Y-126844819D02*
X92876381Y-126844819D01*
X92876381Y-126844819D02*
X92971619Y-126797200D01*
X92971619Y-126797200D02*
X93019238Y-126749580D01*
X93019238Y-126749580D02*
X93114476Y-126606723D01*
X93114476Y-126606723D02*
X93162095Y-126416247D01*
X93162095Y-126416247D02*
X93162095Y-126035295D01*
X93162095Y-126035295D02*
X93114476Y-125940057D01*
X93114476Y-125940057D02*
X93066857Y-125892438D01*
X93066857Y-125892438D02*
X92971619Y-125844819D01*
X92971619Y-125844819D02*
X92781143Y-125844819D01*
X92781143Y-125844819D02*
X92685905Y-125892438D01*
X92685905Y-125892438D02*
X92638286Y-125940057D01*
X92638286Y-125940057D02*
X92590667Y-126035295D01*
X92590667Y-126035295D02*
X92590667Y-126273390D01*
X92590667Y-126273390D02*
X92638286Y-126368628D01*
X92638286Y-126368628D02*
X92685905Y-126416247D01*
X92685905Y-126416247D02*
X92781143Y-126463866D01*
X92781143Y-126463866D02*
X92971619Y-126463866D01*
X92971619Y-126463866D02*
X93066857Y-126416247D01*
X93066857Y-126416247D02*
X93114476Y-126368628D01*
X93114476Y-126368628D02*
X93162095Y-126273390D01*
X93447810Y-125844819D02*
X93781143Y-126844819D01*
X93781143Y-126844819D02*
X94114476Y-125844819D01*
X94447810Y-126463866D02*
X95209715Y-126463866D01*
X94828762Y-126844819D02*
X94828762Y-126082914D01*
X84168857Y-149466819D02*
X84835523Y-149466819D01*
X84835523Y-149466819D02*
X84406952Y-150466819D01*
X84740285Y-144386819D02*
X84264095Y-144386819D01*
X84264095Y-144386819D02*
X84216476Y-144863009D01*
X84216476Y-144863009D02*
X84264095Y-144815390D01*
X84264095Y-144815390D02*
X84359333Y-144767771D01*
X84359333Y-144767771D02*
X84597428Y-144767771D01*
X84597428Y-144767771D02*
X84692666Y-144815390D01*
X84692666Y-144815390D02*
X84740285Y-144863009D01*
X84740285Y-144863009D02*
X84787904Y-144958247D01*
X84787904Y-144958247D02*
X84787904Y-145196342D01*
X84787904Y-145196342D02*
X84740285Y-145291580D01*
X84740285Y-145291580D02*
X84692666Y-145339200D01*
X84692666Y-145339200D02*
X84597428Y-145386819D01*
X84597428Y-145386819D02*
X84359333Y-145386819D01*
X84359333Y-145386819D02*
X84264095Y-145339200D01*
X84264095Y-145339200D02*
X84216476Y-145291580D01*
X85359333Y-144386819D02*
X85359333Y-144624914D01*
X85121238Y-144529676D02*
X85359333Y-144624914D01*
X85359333Y-144624914D02*
X85597428Y-144529676D01*
X85216476Y-144815390D02*
X85359333Y-144624914D01*
X85359333Y-144624914D02*
X85502190Y-144815390D01*
X84787904Y-169834438D02*
X84692666Y-169786819D01*
X84692666Y-169786819D02*
X84549809Y-169786819D01*
X84549809Y-169786819D02*
X84406952Y-169834438D01*
X84406952Y-169834438D02*
X84311714Y-169929676D01*
X84311714Y-169929676D02*
X84264095Y-170024914D01*
X84264095Y-170024914D02*
X84216476Y-170215390D01*
X84216476Y-170215390D02*
X84216476Y-170358247D01*
X84216476Y-170358247D02*
X84264095Y-170548723D01*
X84264095Y-170548723D02*
X84311714Y-170643961D01*
X84311714Y-170643961D02*
X84406952Y-170739200D01*
X84406952Y-170739200D02*
X84549809Y-170786819D01*
X84549809Y-170786819D02*
X84645047Y-170786819D01*
X84645047Y-170786819D02*
X84787904Y-170739200D01*
X84787904Y-170739200D02*
X84835523Y-170691580D01*
X84835523Y-170691580D02*
X84835523Y-170358247D01*
X84835523Y-170358247D02*
X84645047Y-170358247D01*
X85264095Y-170786819D02*
X85264095Y-169786819D01*
X85264095Y-169786819D02*
X85835523Y-170786819D01*
X85835523Y-170786819D02*
X85835523Y-169786819D01*
X86311714Y-170786819D02*
X86311714Y-169786819D01*
X86311714Y-169786819D02*
X86549809Y-169786819D01*
X86549809Y-169786819D02*
X86692666Y-169834438D01*
X86692666Y-169834438D02*
X86787904Y-169929676D01*
X86787904Y-169929676D02*
X86835523Y-170024914D01*
X86835523Y-170024914D02*
X86883142Y-170215390D01*
X86883142Y-170215390D02*
X86883142Y-170358247D01*
X86883142Y-170358247D02*
X86835523Y-170548723D01*
X86835523Y-170548723D02*
X86787904Y-170643961D01*
X86787904Y-170643961D02*
X86692666Y-170739200D01*
X86692666Y-170739200D02*
X86549809Y-170786819D01*
X86549809Y-170786819D02*
X86311714Y-170786819D01*
X84787904Y-163166819D02*
X84216476Y-163166819D01*
X84502190Y-163166819D02*
X84502190Y-162166819D01*
X84502190Y-162166819D02*
X84406952Y-162309676D01*
X84406952Y-162309676D02*
X84311714Y-162404914D01*
X84311714Y-162404914D02*
X84216476Y-162452533D01*
X85168857Y-162262057D02*
X85216476Y-162214438D01*
X85216476Y-162214438D02*
X85311714Y-162166819D01*
X85311714Y-162166819D02*
X85549809Y-162166819D01*
X85549809Y-162166819D02*
X85645047Y-162214438D01*
X85645047Y-162214438D02*
X85692666Y-162262057D01*
X85692666Y-162262057D02*
X85740285Y-162357295D01*
X85740285Y-162357295D02*
X85740285Y-162452533D01*
X85740285Y-162452533D02*
X85692666Y-162595390D01*
X85692666Y-162595390D02*
X85121238Y-163166819D01*
X85121238Y-163166819D02*
X85740285Y-163166819D01*
X84787904Y-158086819D02*
X84216476Y-158086819D01*
X84502190Y-158086819D02*
X84502190Y-157086819D01*
X84502190Y-157086819D02*
X84406952Y-157229676D01*
X84406952Y-157229676D02*
X84311714Y-157324914D01*
X84311714Y-157324914D02*
X84216476Y-157372533D01*
X85406952Y-157086819D02*
X85502190Y-157086819D01*
X85502190Y-157086819D02*
X85597428Y-157134438D01*
X85597428Y-157134438D02*
X85645047Y-157182057D01*
X85645047Y-157182057D02*
X85692666Y-157277295D01*
X85692666Y-157277295D02*
X85740285Y-157467771D01*
X85740285Y-157467771D02*
X85740285Y-157705866D01*
X85740285Y-157705866D02*
X85692666Y-157896342D01*
X85692666Y-157896342D02*
X85645047Y-157991580D01*
X85645047Y-157991580D02*
X85597428Y-158039200D01*
X85597428Y-158039200D02*
X85502190Y-158086819D01*
X85502190Y-158086819D02*
X85406952Y-158086819D01*
X85406952Y-158086819D02*
X85311714Y-158039200D01*
X85311714Y-158039200D02*
X85264095Y-157991580D01*
X85264095Y-157991580D02*
X85216476Y-157896342D01*
X85216476Y-157896342D02*
X85168857Y-157705866D01*
X85168857Y-157705866D02*
X85168857Y-157467771D01*
X85168857Y-157467771D02*
X85216476Y-157277295D01*
X85216476Y-157277295D02*
X85264095Y-157182057D01*
X85264095Y-157182057D02*
X85311714Y-157134438D01*
X85311714Y-157134438D02*
X85406952Y-157086819D01*
X86311714Y-157086819D02*
X86311714Y-157324914D01*
X86073619Y-157229676D02*
X86311714Y-157324914D01*
X86311714Y-157324914D02*
X86549809Y-157229676D01*
X86168857Y-157515390D02*
X86311714Y-157324914D01*
X86311714Y-157324914D02*
X86454571Y-157515390D01*
X101613524Y-161022819D02*
X101613524Y-160022819D01*
X102184952Y-161022819D02*
X101756381Y-160451390D01*
X102184952Y-160022819D02*
X101613524Y-160594247D01*
X102613524Y-161022819D02*
X102613524Y-160022819D01*
X102613524Y-160499009D02*
X103184952Y-160499009D01*
X103184952Y-161022819D02*
X103184952Y-160022819D01*
X103994476Y-160499009D02*
X103661143Y-160499009D01*
X103661143Y-161022819D02*
X103661143Y-160022819D01*
X103661143Y-160022819D02*
X104137333Y-160022819D01*
X105470667Y-160022819D02*
X105565905Y-160022819D01*
X105565905Y-160022819D02*
X105661143Y-160070438D01*
X105661143Y-160070438D02*
X105708762Y-160118057D01*
X105708762Y-160118057D02*
X105756381Y-160213295D01*
X105756381Y-160213295D02*
X105804000Y-160403771D01*
X105804000Y-160403771D02*
X105804000Y-160641866D01*
X105804000Y-160641866D02*
X105756381Y-160832342D01*
X105756381Y-160832342D02*
X105708762Y-160927580D01*
X105708762Y-160927580D02*
X105661143Y-160975200D01*
X105661143Y-160975200D02*
X105565905Y-161022819D01*
X105565905Y-161022819D02*
X105470667Y-161022819D01*
X105470667Y-161022819D02*
X105375429Y-160975200D01*
X105375429Y-160975200D02*
X105327810Y-160927580D01*
X105327810Y-160927580D02*
X105280191Y-160832342D01*
X105280191Y-160832342D02*
X105232572Y-160641866D01*
X105232572Y-160641866D02*
X105232572Y-160403771D01*
X105232572Y-160403771D02*
X105280191Y-160213295D01*
X105280191Y-160213295D02*
X105327810Y-160118057D01*
X105327810Y-160118057D02*
X105375429Y-160070438D01*
X105375429Y-160070438D02*
X105470667Y-160022819D01*
X106756381Y-161022819D02*
X106184953Y-161022819D01*
X106470667Y-161022819D02*
X106470667Y-160022819D01*
X106470667Y-160022819D02*
X106375429Y-160165676D01*
X106375429Y-160165676D02*
X106280191Y-160260914D01*
X106280191Y-160260914D02*
X106184953Y-160308533D01*
X107184953Y-160927580D02*
X107232572Y-160975200D01*
X107232572Y-160975200D02*
X107184953Y-161022819D01*
X107184953Y-161022819D02*
X107137334Y-160975200D01*
X107137334Y-160975200D02*
X107184953Y-160927580D01*
X107184953Y-160927580D02*
X107184953Y-161022819D01*
X107613524Y-160118057D02*
X107661143Y-160070438D01*
X107661143Y-160070438D02*
X107756381Y-160022819D01*
X107756381Y-160022819D02*
X107994476Y-160022819D01*
X107994476Y-160022819D02*
X108089714Y-160070438D01*
X108089714Y-160070438D02*
X108137333Y-160118057D01*
X108137333Y-160118057D02*
X108184952Y-160213295D01*
X108184952Y-160213295D02*
X108184952Y-160308533D01*
X108184952Y-160308533D02*
X108137333Y-160451390D01*
X108137333Y-160451390D02*
X107565905Y-161022819D01*
X107565905Y-161022819D02*
X108184952Y-161022819D01*
X108804000Y-160022819D02*
X108899238Y-160022819D01*
X108899238Y-160022819D02*
X108994476Y-160070438D01*
X108994476Y-160070438D02*
X109042095Y-160118057D01*
X109042095Y-160118057D02*
X109089714Y-160213295D01*
X109089714Y-160213295D02*
X109137333Y-160403771D01*
X109137333Y-160403771D02*
X109137333Y-160641866D01*
X109137333Y-160641866D02*
X109089714Y-160832342D01*
X109089714Y-160832342D02*
X109042095Y-160927580D01*
X109042095Y-160927580D02*
X108994476Y-160975200D01*
X108994476Y-160975200D02*
X108899238Y-161022819D01*
X108899238Y-161022819D02*
X108804000Y-161022819D01*
X108804000Y-161022819D02*
X108708762Y-160975200D01*
X108708762Y-160975200D02*
X108661143Y-160927580D01*
X108661143Y-160927580D02*
X108613524Y-160832342D01*
X108613524Y-160832342D02*
X108565905Y-160641866D01*
X108565905Y-160641866D02*
X108565905Y-160403771D01*
X108565905Y-160403771D02*
X108613524Y-160213295D01*
X108613524Y-160213295D02*
X108661143Y-160118057D01*
X108661143Y-160118057D02*
X108708762Y-160070438D01*
X108708762Y-160070438D02*
X108804000Y-160022819D01*
X109518286Y-160118057D02*
X109565905Y-160070438D01*
X109565905Y-160070438D02*
X109661143Y-160022819D01*
X109661143Y-160022819D02*
X109899238Y-160022819D01*
X109899238Y-160022819D02*
X109994476Y-160070438D01*
X109994476Y-160070438D02*
X110042095Y-160118057D01*
X110042095Y-160118057D02*
X110089714Y-160213295D01*
X110089714Y-160213295D02*
X110089714Y-160308533D01*
X110089714Y-160308533D02*
X110042095Y-160451390D01*
X110042095Y-160451390D02*
X109470667Y-161022819D01*
X109470667Y-161022819D02*
X110089714Y-161022819D01*
X110946857Y-160022819D02*
X110756381Y-160022819D01*
X110756381Y-160022819D02*
X110661143Y-160070438D01*
X110661143Y-160070438D02*
X110613524Y-160118057D01*
X110613524Y-160118057D02*
X110518286Y-160260914D01*
X110518286Y-160260914D02*
X110470667Y-160451390D01*
X110470667Y-160451390D02*
X110470667Y-160832342D01*
X110470667Y-160832342D02*
X110518286Y-160927580D01*
X110518286Y-160927580D02*
X110565905Y-160975200D01*
X110565905Y-160975200D02*
X110661143Y-161022819D01*
X110661143Y-161022819D02*
X110851619Y-161022819D01*
X110851619Y-161022819D02*
X110946857Y-160975200D01*
X110946857Y-160975200D02*
X110994476Y-160927580D01*
X110994476Y-160927580D02*
X111042095Y-160832342D01*
X111042095Y-160832342D02*
X111042095Y-160594247D01*
X111042095Y-160594247D02*
X110994476Y-160499009D01*
X110994476Y-160499009D02*
X110946857Y-160451390D01*
X110946857Y-160451390D02*
X110851619Y-160403771D01*
X110851619Y-160403771D02*
X110661143Y-160403771D01*
X110661143Y-160403771D02*
X110565905Y-160451390D01*
X110565905Y-160451390D02*
X110518286Y-160499009D01*
X110518286Y-160499009D02*
X110470667Y-160594247D01*
X84454571Y-131686819D02*
X84549809Y-131686819D01*
X84549809Y-131686819D02*
X84645047Y-131734438D01*
X84645047Y-131734438D02*
X84692666Y-131782057D01*
X84692666Y-131782057D02*
X84740285Y-131877295D01*
X84740285Y-131877295D02*
X84787904Y-132067771D01*
X84787904Y-132067771D02*
X84787904Y-132305866D01*
X84787904Y-132305866D02*
X84740285Y-132496342D01*
X84740285Y-132496342D02*
X84692666Y-132591580D01*
X84692666Y-132591580D02*
X84645047Y-132639200D01*
X84645047Y-132639200D02*
X84549809Y-132686819D01*
X84549809Y-132686819D02*
X84454571Y-132686819D01*
X84454571Y-132686819D02*
X84359333Y-132639200D01*
X84359333Y-132639200D02*
X84311714Y-132591580D01*
X84311714Y-132591580D02*
X84264095Y-132496342D01*
X84264095Y-132496342D02*
X84216476Y-132305866D01*
X84216476Y-132305866D02*
X84216476Y-132067771D01*
X84216476Y-132067771D02*
X84264095Y-131877295D01*
X84264095Y-131877295D02*
X84311714Y-131782057D01*
X84311714Y-131782057D02*
X84359333Y-131734438D01*
X84359333Y-131734438D02*
X84454571Y-131686819D01*
X84216476Y-136862057D02*
X84264095Y-136814438D01*
X84264095Y-136814438D02*
X84359333Y-136766819D01*
X84359333Y-136766819D02*
X84597428Y-136766819D01*
X84597428Y-136766819D02*
X84692666Y-136814438D01*
X84692666Y-136814438D02*
X84740285Y-136862057D01*
X84740285Y-136862057D02*
X84787904Y-136957295D01*
X84787904Y-136957295D02*
X84787904Y-137052533D01*
X84787904Y-137052533D02*
X84740285Y-137195390D01*
X84740285Y-137195390D02*
X84168857Y-137766819D01*
X84168857Y-137766819D02*
X84787904Y-137766819D01*
X84787904Y-135226819D02*
X84216476Y-135226819D01*
X84502190Y-135226819D02*
X84502190Y-134226819D01*
X84502190Y-134226819D02*
X84406952Y-134369676D01*
X84406952Y-134369676D02*
X84311714Y-134464914D01*
X84311714Y-134464914D02*
X84216476Y-134512533D01*
X108981009Y-123714285D02*
X108981009Y-123380952D01*
X109504819Y-123238095D02*
X109504819Y-123714285D01*
X109504819Y-123714285D02*
X108504819Y-123714285D01*
X108504819Y-123714285D02*
X108504819Y-123238095D01*
X84692666Y-146926819D02*
X84502190Y-146926819D01*
X84502190Y-146926819D02*
X84406952Y-146974438D01*
X84406952Y-146974438D02*
X84359333Y-147022057D01*
X84359333Y-147022057D02*
X84264095Y-147164914D01*
X84264095Y-147164914D02*
X84216476Y-147355390D01*
X84216476Y-147355390D02*
X84216476Y-147736342D01*
X84216476Y-147736342D02*
X84264095Y-147831580D01*
X84264095Y-147831580D02*
X84311714Y-147879200D01*
X84311714Y-147879200D02*
X84406952Y-147926819D01*
X84406952Y-147926819D02*
X84597428Y-147926819D01*
X84597428Y-147926819D02*
X84692666Y-147879200D01*
X84692666Y-147879200D02*
X84740285Y-147831580D01*
X84740285Y-147831580D02*
X84787904Y-147736342D01*
X84787904Y-147736342D02*
X84787904Y-147498247D01*
X84787904Y-147498247D02*
X84740285Y-147403009D01*
X84740285Y-147403009D02*
X84692666Y-147355390D01*
X84692666Y-147355390D02*
X84597428Y-147307771D01*
X84597428Y-147307771D02*
X84406952Y-147307771D01*
X84406952Y-147307771D02*
X84311714Y-147355390D01*
X84311714Y-147355390D02*
X84264095Y-147403009D01*
X84264095Y-147403009D02*
X84216476Y-147498247D01*
X85359333Y-146926819D02*
X85359333Y-147164914D01*
X85121238Y-147069676D02*
X85359333Y-147164914D01*
X85359333Y-147164914D02*
X85597428Y-147069676D01*
X85216476Y-147355390D02*
X85359333Y-147164914D01*
X85359333Y-147164914D02*
X85502190Y-147355390D01*
X84168857Y-139306819D02*
X84787904Y-139306819D01*
X84787904Y-139306819D02*
X84454571Y-139687771D01*
X84454571Y-139687771D02*
X84597428Y-139687771D01*
X84597428Y-139687771D02*
X84692666Y-139735390D01*
X84692666Y-139735390D02*
X84740285Y-139783009D01*
X84740285Y-139783009D02*
X84787904Y-139878247D01*
X84787904Y-139878247D02*
X84787904Y-140116342D01*
X84787904Y-140116342D02*
X84740285Y-140211580D01*
X84740285Y-140211580D02*
X84692666Y-140259200D01*
X84692666Y-140259200D02*
X84597428Y-140306819D01*
X84597428Y-140306819D02*
X84311714Y-140306819D01*
X84311714Y-140306819D02*
X84216476Y-140259200D01*
X84216476Y-140259200D02*
X84168857Y-140211580D01*
X85359333Y-139306819D02*
X85359333Y-139544914D01*
X85121238Y-139449676D02*
X85359333Y-139544914D01*
X85359333Y-139544914D02*
X85597428Y-139449676D01*
X85216476Y-139735390D02*
X85359333Y-139544914D01*
X85359333Y-139544914D02*
X85502190Y-139735390D01*
X106619104Y-123738094D02*
X106619104Y-123261904D01*
X106904819Y-123833332D02*
X105904819Y-123499999D01*
X105904819Y-123499999D02*
X106904819Y-123166666D01*
X84311714Y-155546819D02*
X84502190Y-155546819D01*
X84502190Y-155546819D02*
X84597428Y-155499200D01*
X84597428Y-155499200D02*
X84645047Y-155451580D01*
X84645047Y-155451580D02*
X84740285Y-155308723D01*
X84740285Y-155308723D02*
X84787904Y-155118247D01*
X84787904Y-155118247D02*
X84787904Y-154737295D01*
X84787904Y-154737295D02*
X84740285Y-154642057D01*
X84740285Y-154642057D02*
X84692666Y-154594438D01*
X84692666Y-154594438D02*
X84597428Y-154546819D01*
X84597428Y-154546819D02*
X84406952Y-154546819D01*
X84406952Y-154546819D02*
X84311714Y-154594438D01*
X84311714Y-154594438D02*
X84264095Y-154642057D01*
X84264095Y-154642057D02*
X84216476Y-154737295D01*
X84216476Y-154737295D02*
X84216476Y-154975390D01*
X84216476Y-154975390D02*
X84264095Y-155070628D01*
X84264095Y-155070628D02*
X84311714Y-155118247D01*
X84311714Y-155118247D02*
X84406952Y-155165866D01*
X84406952Y-155165866D02*
X84597428Y-155165866D01*
X84597428Y-155165866D02*
X84692666Y-155118247D01*
X84692666Y-155118247D02*
X84740285Y-155070628D01*
X84740285Y-155070628D02*
X84787904Y-154975390D01*
X85359333Y-154546819D02*
X85359333Y-154784914D01*
X85121238Y-154689676D02*
X85359333Y-154784914D01*
X85359333Y-154784914D02*
X85597428Y-154689676D01*
X85216476Y-154975390D02*
X85359333Y-154784914D01*
X85359333Y-154784914D02*
X85502190Y-154975390D01*
X84787904Y-160626819D02*
X84216476Y-160626819D01*
X84502190Y-160626819D02*
X84502190Y-159626819D01*
X84502190Y-159626819D02*
X84406952Y-159769676D01*
X84406952Y-159769676D02*
X84311714Y-159864914D01*
X84311714Y-159864914D02*
X84216476Y-159912533D01*
X85740285Y-160626819D02*
X85168857Y-160626819D01*
X85454571Y-160626819D02*
X85454571Y-159626819D01*
X85454571Y-159626819D02*
X85359333Y-159769676D01*
X85359333Y-159769676D02*
X85264095Y-159864914D01*
X85264095Y-159864914D02*
X85168857Y-159912533D01*
X86311714Y-159626819D02*
X86311714Y-159864914D01*
X86073619Y-159769676D02*
X86311714Y-159864914D01*
X86311714Y-159864914D02*
X86549809Y-159769676D01*
X86168857Y-160055390D02*
X86311714Y-159864914D01*
X86311714Y-159864914D02*
X86454571Y-160055390D01*
X94514286Y-168823866D02*
X95276191Y-168823866D01*
X94895238Y-169204819D02*
X94895238Y-168442914D01*
X96228571Y-168204819D02*
X95752381Y-168204819D01*
X95752381Y-168204819D02*
X95704762Y-168681009D01*
X95704762Y-168681009D02*
X95752381Y-168633390D01*
X95752381Y-168633390D02*
X95847619Y-168585771D01*
X95847619Y-168585771D02*
X96085714Y-168585771D01*
X96085714Y-168585771D02*
X96180952Y-168633390D01*
X96180952Y-168633390D02*
X96228571Y-168681009D01*
X96228571Y-168681009D02*
X96276190Y-168776247D01*
X96276190Y-168776247D02*
X96276190Y-169014342D01*
X96276190Y-169014342D02*
X96228571Y-169109580D01*
X96228571Y-169109580D02*
X96180952Y-169157200D01*
X96180952Y-169157200D02*
X96085714Y-169204819D01*
X96085714Y-169204819D02*
X95847619Y-169204819D01*
X95847619Y-169204819D02*
X95752381Y-169157200D01*
X95752381Y-169157200D02*
X95704762Y-169109580D01*
X96561905Y-168204819D02*
X96895238Y-169204819D01*
X96895238Y-169204819D02*
X97228571Y-168204819D01*
X84692666Y-142180152D02*
X84692666Y-142846819D01*
X84454571Y-141799200D02*
X84216476Y-142513485D01*
X84216476Y-142513485D02*
X84835523Y-142513485D01*
X84787904Y-165706819D02*
X84216476Y-165706819D01*
X84502190Y-165706819D02*
X84502190Y-164706819D01*
X84502190Y-164706819D02*
X84406952Y-164849676D01*
X84406952Y-164849676D02*
X84311714Y-164944914D01*
X84311714Y-164944914D02*
X84216476Y-164992533D01*
X85121238Y-164706819D02*
X85740285Y-164706819D01*
X85740285Y-164706819D02*
X85406952Y-165087771D01*
X85406952Y-165087771D02*
X85549809Y-165087771D01*
X85549809Y-165087771D02*
X85645047Y-165135390D01*
X85645047Y-165135390D02*
X85692666Y-165183009D01*
X85692666Y-165183009D02*
X85740285Y-165278247D01*
X85740285Y-165278247D02*
X85740285Y-165516342D01*
X85740285Y-165516342D02*
X85692666Y-165611580D01*
X85692666Y-165611580D02*
X85645047Y-165659200D01*
X85645047Y-165659200D02*
X85549809Y-165706819D01*
X85549809Y-165706819D02*
X85264095Y-165706819D01*
X85264095Y-165706819D02*
X85168857Y-165659200D01*
X85168857Y-165659200D02*
X85121238Y-165611580D01*
X102862095Y-162912819D02*
X102862095Y-161912819D01*
X102862095Y-161912819D02*
X103433523Y-162912819D01*
X103433523Y-162912819D02*
X103433523Y-161912819D01*
X103862095Y-162627104D02*
X104338285Y-162627104D01*
X103766857Y-162912819D02*
X104100190Y-161912819D01*
X104100190Y-161912819D02*
X104433523Y-162912819D01*
X104766857Y-162912819D02*
X104766857Y-161912819D01*
X104766857Y-161912819D02*
X105338285Y-162912819D01*
X105338285Y-162912819D02*
X105338285Y-161912819D01*
X106004952Y-161912819D02*
X106195428Y-161912819D01*
X106195428Y-161912819D02*
X106290666Y-161960438D01*
X106290666Y-161960438D02*
X106385904Y-162055676D01*
X106385904Y-162055676D02*
X106433523Y-162246152D01*
X106433523Y-162246152D02*
X106433523Y-162579485D01*
X106433523Y-162579485D02*
X106385904Y-162769961D01*
X106385904Y-162769961D02*
X106290666Y-162865200D01*
X106290666Y-162865200D02*
X106195428Y-162912819D01*
X106195428Y-162912819D02*
X106004952Y-162912819D01*
X106004952Y-162912819D02*
X105909714Y-162865200D01*
X105909714Y-162865200D02*
X105814476Y-162769961D01*
X105814476Y-162769961D02*
X105766857Y-162579485D01*
X105766857Y-162579485D02*
X105766857Y-162246152D01*
X105766857Y-162246152D02*
X105814476Y-162055676D01*
X105814476Y-162055676D02*
X105909714Y-161960438D01*
X105909714Y-161960438D02*
X106004952Y-161912819D01*
X107481143Y-161912819D02*
X107814476Y-162912819D01*
X107814476Y-162912819D02*
X108147809Y-161912819D01*
X108385905Y-161912819D02*
X109004952Y-161912819D01*
X109004952Y-161912819D02*
X108671619Y-162293771D01*
X108671619Y-162293771D02*
X108814476Y-162293771D01*
X108814476Y-162293771D02*
X108909714Y-162341390D01*
X108909714Y-162341390D02*
X108957333Y-162389009D01*
X108957333Y-162389009D02*
X109004952Y-162484247D01*
X109004952Y-162484247D02*
X109004952Y-162722342D01*
X109004952Y-162722342D02*
X108957333Y-162817580D01*
X108957333Y-162817580D02*
X108909714Y-162865200D01*
X108909714Y-162865200D02*
X108814476Y-162912819D01*
X108814476Y-162912819D02*
X108528762Y-162912819D01*
X108528762Y-162912819D02*
X108433524Y-162865200D01*
X108433524Y-162865200D02*
X108385905Y-162817580D01*
X109433524Y-162817580D02*
X109481143Y-162865200D01*
X109481143Y-162865200D02*
X109433524Y-162912819D01*
X109433524Y-162912819D02*
X109385905Y-162865200D01*
X109385905Y-162865200D02*
X109433524Y-162817580D01*
X109433524Y-162817580D02*
X109433524Y-162912819D01*
X110433523Y-162912819D02*
X109862095Y-162912819D01*
X110147809Y-162912819D02*
X110147809Y-161912819D01*
X110147809Y-161912819D02*
X110052571Y-162055676D01*
X110052571Y-162055676D02*
X109957333Y-162150914D01*
X109957333Y-162150914D02*
X109862095Y-162198533D01*
X88082095Y-125892438D02*
X87986857Y-125844819D01*
X87986857Y-125844819D02*
X87844000Y-125844819D01*
X87844000Y-125844819D02*
X87701143Y-125892438D01*
X87701143Y-125892438D02*
X87605905Y-125987676D01*
X87605905Y-125987676D02*
X87558286Y-126082914D01*
X87558286Y-126082914D02*
X87510667Y-126273390D01*
X87510667Y-126273390D02*
X87510667Y-126416247D01*
X87510667Y-126416247D02*
X87558286Y-126606723D01*
X87558286Y-126606723D02*
X87605905Y-126701961D01*
X87605905Y-126701961D02*
X87701143Y-126797200D01*
X87701143Y-126797200D02*
X87844000Y-126844819D01*
X87844000Y-126844819D02*
X87939238Y-126844819D01*
X87939238Y-126844819D02*
X88082095Y-126797200D01*
X88082095Y-126797200D02*
X88129714Y-126749580D01*
X88129714Y-126749580D02*
X88129714Y-126416247D01*
X88129714Y-126416247D02*
X87939238Y-126416247D01*
X88558286Y-126844819D02*
X88558286Y-125844819D01*
X88558286Y-125844819D02*
X89129714Y-126844819D01*
X89129714Y-126844819D02*
X89129714Y-125844819D01*
X89605905Y-126844819D02*
X89605905Y-125844819D01*
X89605905Y-125844819D02*
X89844000Y-125844819D01*
X89844000Y-125844819D02*
X89986857Y-125892438D01*
X89986857Y-125892438D02*
X90082095Y-125987676D01*
X90082095Y-125987676D02*
X90129714Y-126082914D01*
X90129714Y-126082914D02*
X90177333Y-126273390D01*
X90177333Y-126273390D02*
X90177333Y-126416247D01*
X90177333Y-126416247D02*
X90129714Y-126606723D01*
X90129714Y-126606723D02*
X90082095Y-126701961D01*
X90082095Y-126701961D02*
X89986857Y-126797200D01*
X89986857Y-126797200D02*
X89844000Y-126844819D01*
X89844000Y-126844819D02*
X89605905Y-126844819D01*
X114152572Y-124392819D02*
X114152572Y-123392819D01*
X114152572Y-123392819D02*
X114485905Y-124107104D01*
X114485905Y-124107104D02*
X114819238Y-123392819D01*
X114819238Y-123392819D02*
X114819238Y-124392819D01*
X115485905Y-123392819D02*
X115676381Y-123392819D01*
X115676381Y-123392819D02*
X115771619Y-123440438D01*
X115771619Y-123440438D02*
X115866857Y-123535676D01*
X115866857Y-123535676D02*
X115914476Y-123726152D01*
X115914476Y-123726152D02*
X115914476Y-124059485D01*
X115914476Y-124059485D02*
X115866857Y-124249961D01*
X115866857Y-124249961D02*
X115771619Y-124345200D01*
X115771619Y-124345200D02*
X115676381Y-124392819D01*
X115676381Y-124392819D02*
X115485905Y-124392819D01*
X115485905Y-124392819D02*
X115390667Y-124345200D01*
X115390667Y-124345200D02*
X115295429Y-124249961D01*
X115295429Y-124249961D02*
X115247810Y-124059485D01*
X115247810Y-124059485D02*
X115247810Y-123726152D01*
X115247810Y-123726152D02*
X115295429Y-123535676D01*
X115295429Y-123535676D02*
X115390667Y-123440438D01*
X115390667Y-123440438D02*
X115485905Y-123392819D01*
X116295429Y-124345200D02*
X116438286Y-124392819D01*
X116438286Y-124392819D02*
X116676381Y-124392819D01*
X116676381Y-124392819D02*
X116771619Y-124345200D01*
X116771619Y-124345200D02*
X116819238Y-124297580D01*
X116819238Y-124297580D02*
X116866857Y-124202342D01*
X116866857Y-124202342D02*
X116866857Y-124107104D01*
X116866857Y-124107104D02*
X116819238Y-124011866D01*
X116819238Y-124011866D02*
X116771619Y-123964247D01*
X116771619Y-123964247D02*
X116676381Y-123916628D01*
X116676381Y-123916628D02*
X116485905Y-123869009D01*
X116485905Y-123869009D02*
X116390667Y-123821390D01*
X116390667Y-123821390D02*
X116343048Y-123773771D01*
X116343048Y-123773771D02*
X116295429Y-123678533D01*
X116295429Y-123678533D02*
X116295429Y-123583295D01*
X116295429Y-123583295D02*
X116343048Y-123488057D01*
X116343048Y-123488057D02*
X116390667Y-123440438D01*
X116390667Y-123440438D02*
X116485905Y-123392819D01*
X116485905Y-123392819D02*
X116724000Y-123392819D01*
X116724000Y-123392819D02*
X116866857Y-123440438D01*
X117295429Y-124392819D02*
X117295429Y-123392819D01*
X122309524Y-170407200D02*
X122452381Y-170454819D01*
X122452381Y-170454819D02*
X122690476Y-170454819D01*
X122690476Y-170454819D02*
X122785714Y-170407200D01*
X122785714Y-170407200D02*
X122833333Y-170359580D01*
X122833333Y-170359580D02*
X122880952Y-170264342D01*
X122880952Y-170264342D02*
X122880952Y-170169104D01*
X122880952Y-170169104D02*
X122833333Y-170073866D01*
X122833333Y-170073866D02*
X122785714Y-170026247D01*
X122785714Y-170026247D02*
X122690476Y-169978628D01*
X122690476Y-169978628D02*
X122500000Y-169931009D01*
X122500000Y-169931009D02*
X122404762Y-169883390D01*
X122404762Y-169883390D02*
X122357143Y-169835771D01*
X122357143Y-169835771D02*
X122309524Y-169740533D01*
X122309524Y-169740533D02*
X122309524Y-169645295D01*
X122309524Y-169645295D02*
X122357143Y-169550057D01*
X122357143Y-169550057D02*
X122404762Y-169502438D01*
X122404762Y-169502438D02*
X122500000Y-169454819D01*
X122500000Y-169454819D02*
X122738095Y-169454819D01*
X122738095Y-169454819D02*
X122880952Y-169502438D01*
X123309524Y-170454819D02*
X123309524Y-169454819D01*
X123309524Y-169454819D02*
X123547619Y-169454819D01*
X123547619Y-169454819D02*
X123690476Y-169502438D01*
X123690476Y-169502438D02*
X123785714Y-169597676D01*
X123785714Y-169597676D02*
X123833333Y-169692914D01*
X123833333Y-169692914D02*
X123880952Y-169883390D01*
X123880952Y-169883390D02*
X123880952Y-170026247D01*
X123880952Y-170026247D02*
X123833333Y-170216723D01*
X123833333Y-170216723D02*
X123785714Y-170311961D01*
X123785714Y-170311961D02*
X123690476Y-170407200D01*
X123690476Y-170407200D02*
X123547619Y-170454819D01*
X123547619Y-170454819D02*
X123309524Y-170454819D01*
X124785714Y-170454819D02*
X124309524Y-170454819D01*
X124309524Y-170454819D02*
X124309524Y-169454819D01*
X94068572Y-173331570D02*
X94068572Y-172331570D01*
X94068572Y-172331570D02*
X94401905Y-173045855D01*
X94401905Y-173045855D02*
X94735238Y-172331570D01*
X94735238Y-172331570D02*
X94735238Y-173331570D01*
X95211429Y-173331570D02*
X95211429Y-172331570D01*
X95640000Y-173283951D02*
X95782857Y-173331570D01*
X95782857Y-173331570D02*
X96020952Y-173331570D01*
X96020952Y-173331570D02*
X96116190Y-173283951D01*
X96116190Y-173283951D02*
X96163809Y-173236331D01*
X96163809Y-173236331D02*
X96211428Y-173141093D01*
X96211428Y-173141093D02*
X96211428Y-173045855D01*
X96211428Y-173045855D02*
X96163809Y-172950617D01*
X96163809Y-172950617D02*
X96116190Y-172902998D01*
X96116190Y-172902998D02*
X96020952Y-172855379D01*
X96020952Y-172855379D02*
X95830476Y-172807760D01*
X95830476Y-172807760D02*
X95735238Y-172760141D01*
X95735238Y-172760141D02*
X95687619Y-172712522D01*
X95687619Y-172712522D02*
X95640000Y-172617284D01*
X95640000Y-172617284D02*
X95640000Y-172522046D01*
X95640000Y-172522046D02*
X95687619Y-172426808D01*
X95687619Y-172426808D02*
X95735238Y-172379189D01*
X95735238Y-172379189D02*
X95830476Y-172331570D01*
X95830476Y-172331570D02*
X96068571Y-172331570D01*
X96068571Y-172331570D02*
X96211428Y-172379189D01*
X96830476Y-172331570D02*
X97020952Y-172331570D01*
X97020952Y-172331570D02*
X97116190Y-172379189D01*
X97116190Y-172379189D02*
X97211428Y-172474427D01*
X97211428Y-172474427D02*
X97259047Y-172664903D01*
X97259047Y-172664903D02*
X97259047Y-172998236D01*
X97259047Y-172998236D02*
X97211428Y-173188712D01*
X97211428Y-173188712D02*
X97116190Y-173283951D01*
X97116190Y-173283951D02*
X97020952Y-173331570D01*
X97020952Y-173331570D02*
X96830476Y-173331570D01*
X96830476Y-173331570D02*
X96735238Y-173283951D01*
X96735238Y-173283951D02*
X96640000Y-173188712D01*
X96640000Y-173188712D02*
X96592381Y-172998236D01*
X96592381Y-172998236D02*
X96592381Y-172664903D01*
X96592381Y-172664903D02*
X96640000Y-172474427D01*
X96640000Y-172474427D02*
X96735238Y-172379189D01*
X96735238Y-172379189D02*
X96830476Y-172331570D01*
X120128572Y-124404819D02*
X120128572Y-123404819D01*
X120128572Y-123404819D02*
X120461905Y-124119104D01*
X120461905Y-124119104D02*
X120795238Y-123404819D01*
X120795238Y-123404819D02*
X120795238Y-124404819D01*
X121271429Y-124404819D02*
X121271429Y-123404819D01*
X121700000Y-124357200D02*
X121842857Y-124404819D01*
X121842857Y-124404819D02*
X122080952Y-124404819D01*
X122080952Y-124404819D02*
X122176190Y-124357200D01*
X122176190Y-124357200D02*
X122223809Y-124309580D01*
X122223809Y-124309580D02*
X122271428Y-124214342D01*
X122271428Y-124214342D02*
X122271428Y-124119104D01*
X122271428Y-124119104D02*
X122223809Y-124023866D01*
X122223809Y-124023866D02*
X122176190Y-123976247D01*
X122176190Y-123976247D02*
X122080952Y-123928628D01*
X122080952Y-123928628D02*
X121890476Y-123881009D01*
X121890476Y-123881009D02*
X121795238Y-123833390D01*
X121795238Y-123833390D02*
X121747619Y-123785771D01*
X121747619Y-123785771D02*
X121700000Y-123690533D01*
X121700000Y-123690533D02*
X121700000Y-123595295D01*
X121700000Y-123595295D02*
X121747619Y-123500057D01*
X121747619Y-123500057D02*
X121795238Y-123452438D01*
X121795238Y-123452438D02*
X121890476Y-123404819D01*
X121890476Y-123404819D02*
X122128571Y-123404819D01*
X122128571Y-123404819D02*
X122271428Y-123452438D01*
X122890476Y-123404819D02*
X123080952Y-123404819D01*
X123080952Y-123404819D02*
X123176190Y-123452438D01*
X123176190Y-123452438D02*
X123271428Y-123547676D01*
X123271428Y-123547676D02*
X123319047Y-123738152D01*
X123319047Y-123738152D02*
X123319047Y-124071485D01*
X123319047Y-124071485D02*
X123271428Y-124261961D01*
X123271428Y-124261961D02*
X123176190Y-124357200D01*
X123176190Y-124357200D02*
X123080952Y-124404819D01*
X123080952Y-124404819D02*
X122890476Y-124404819D01*
X122890476Y-124404819D02*
X122795238Y-124357200D01*
X122795238Y-124357200D02*
X122700000Y-124261961D01*
X122700000Y-124261961D02*
X122652381Y-124071485D01*
X122652381Y-124071485D02*
X122652381Y-123738152D01*
X122652381Y-123738152D02*
X122700000Y-123547676D01*
X122700000Y-123547676D02*
X122795238Y-123452438D01*
X122795238Y-123452438D02*
X122890476Y-123404819D01*
X117235714Y-170457200D02*
X117378571Y-170504819D01*
X117378571Y-170504819D02*
X117616666Y-170504819D01*
X117616666Y-170504819D02*
X117711904Y-170457200D01*
X117711904Y-170457200D02*
X117759523Y-170409580D01*
X117759523Y-170409580D02*
X117807142Y-170314342D01*
X117807142Y-170314342D02*
X117807142Y-170219104D01*
X117807142Y-170219104D02*
X117759523Y-170123866D01*
X117759523Y-170123866D02*
X117711904Y-170076247D01*
X117711904Y-170076247D02*
X117616666Y-170028628D01*
X117616666Y-170028628D02*
X117426190Y-169981009D01*
X117426190Y-169981009D02*
X117330952Y-169933390D01*
X117330952Y-169933390D02*
X117283333Y-169885771D01*
X117283333Y-169885771D02*
X117235714Y-169790533D01*
X117235714Y-169790533D02*
X117235714Y-169695295D01*
X117235714Y-169695295D02*
X117283333Y-169600057D01*
X117283333Y-169600057D02*
X117330952Y-169552438D01*
X117330952Y-169552438D02*
X117426190Y-169504819D01*
X117426190Y-169504819D02*
X117664285Y-169504819D01*
X117664285Y-169504819D02*
X117807142Y-169552438D01*
X118235714Y-170504819D02*
X118235714Y-169504819D01*
X118235714Y-169504819D02*
X118473809Y-169504819D01*
X118473809Y-169504819D02*
X118616666Y-169552438D01*
X118616666Y-169552438D02*
X118711904Y-169647676D01*
X118711904Y-169647676D02*
X118759523Y-169742914D01*
X118759523Y-169742914D02*
X118807142Y-169933390D01*
X118807142Y-169933390D02*
X118807142Y-170076247D01*
X118807142Y-170076247D02*
X118759523Y-170266723D01*
X118759523Y-170266723D02*
X118711904Y-170361961D01*
X118711904Y-170361961D02*
X118616666Y-170457200D01*
X118616666Y-170457200D02*
X118473809Y-170504819D01*
X118473809Y-170504819D02*
X118235714Y-170504819D01*
X119188095Y-170219104D02*
X119664285Y-170219104D01*
X119092857Y-170504819D02*
X119426190Y-169504819D01*
X119426190Y-169504819D02*
X119759523Y-170504819D01*
X85328572Y-173304819D02*
X85328572Y-172304819D01*
X85328572Y-172304819D02*
X85661905Y-173019104D01*
X85661905Y-173019104D02*
X85995238Y-172304819D01*
X85995238Y-172304819D02*
X85995238Y-173304819D01*
X86661905Y-172304819D02*
X86852381Y-172304819D01*
X86852381Y-172304819D02*
X86947619Y-172352438D01*
X86947619Y-172352438D02*
X87042857Y-172447676D01*
X87042857Y-172447676D02*
X87090476Y-172638152D01*
X87090476Y-172638152D02*
X87090476Y-172971485D01*
X87090476Y-172971485D02*
X87042857Y-173161961D01*
X87042857Y-173161961D02*
X86947619Y-173257200D01*
X86947619Y-173257200D02*
X86852381Y-173304819D01*
X86852381Y-173304819D02*
X86661905Y-173304819D01*
X86661905Y-173304819D02*
X86566667Y-173257200D01*
X86566667Y-173257200D02*
X86471429Y-173161961D01*
X86471429Y-173161961D02*
X86423810Y-172971485D01*
X86423810Y-172971485D02*
X86423810Y-172638152D01*
X86423810Y-172638152D02*
X86471429Y-172447676D01*
X86471429Y-172447676D02*
X86566667Y-172352438D01*
X86566667Y-172352438D02*
X86661905Y-172304819D01*
X87471429Y-173257200D02*
X87614286Y-173304819D01*
X87614286Y-173304819D02*
X87852381Y-173304819D01*
X87852381Y-173304819D02*
X87947619Y-173257200D01*
X87947619Y-173257200D02*
X87995238Y-173209580D01*
X87995238Y-173209580D02*
X88042857Y-173114342D01*
X88042857Y-173114342D02*
X88042857Y-173019104D01*
X88042857Y-173019104D02*
X87995238Y-172923866D01*
X87995238Y-172923866D02*
X87947619Y-172876247D01*
X87947619Y-172876247D02*
X87852381Y-172828628D01*
X87852381Y-172828628D02*
X87661905Y-172781009D01*
X87661905Y-172781009D02*
X87566667Y-172733390D01*
X87566667Y-172733390D02*
X87519048Y-172685771D01*
X87519048Y-172685771D02*
X87471429Y-172590533D01*
X87471429Y-172590533D02*
X87471429Y-172495295D01*
X87471429Y-172495295D02*
X87519048Y-172400057D01*
X87519048Y-172400057D02*
X87566667Y-172352438D01*
X87566667Y-172352438D02*
X87661905Y-172304819D01*
X87661905Y-172304819D02*
X87900000Y-172304819D01*
X87900000Y-172304819D02*
X88042857Y-172352438D01*
X88471429Y-173304819D02*
X88471429Y-172304819D01*
D10*
%TO.C,A1*%
X97635001Y-128313001D02*
X97635001Y-130983001D01*
X97635001Y-133523001D02*
X97635001Y-171753001D01*
X97635001Y-171753001D02*
X115675001Y-171753001D01*
X100305001Y-130983001D02*
X97635001Y-130983001D01*
X100305001Y-133523001D02*
X97635001Y-133523001D01*
X100305001Y-133523001D02*
X100305001Y-130983001D01*
X100305001Y-133523001D02*
X100305001Y-169083001D01*
X100305001Y-169083001D02*
X97635001Y-169083001D01*
X113005001Y-130983001D02*
X113005001Y-169083001D01*
X113005001Y-130983001D02*
X115675001Y-130983001D01*
X113005001Y-169083001D02*
X115675001Y-169083001D01*
X115675001Y-128313001D02*
X97635001Y-128313001D01*
X115675001Y-171753001D02*
X115675001Y-128313001D01*
%TO.C,Mircro_Schalter*%
X101532400Y-124143400D02*
X111489200Y-124143400D01*
X101532400Y-128080400D02*
X101507000Y-124143400D01*
X111489200Y-124143400D02*
X111489200Y-128080400D01*
X111489200Y-128080400D02*
X101532400Y-128080400D01*
%TD*%
M02*
