%TF.GenerationSoftware,KiCad,Pcbnew,9.0.6*%
%TF.CreationDate,2026-01-10T11:23:17+01:00*%
%TF.ProjectId,NANO-ShieldV2,4e414e4f-2d53-4686-9965-6c6456322e6b,rev?*%
%TF.SameCoordinates,Original*%
%TF.FileFunction,Soldermask,Top*%
%TF.FilePolarity,Negative*%
%FSLAX46Y46*%
G04 Gerber Fmt 4.6, Leading zero omitted, Abs format (unit mm)*
G04 Created by KiCad (PCBNEW 9.0.6) date 2026-01-10 11:23:17*
%MOMM*%
%LPD*%
G01*
G04 APERTURE LIST*
G04 Aperture macros list*
%AMRoundRect*
0 Rectangle with rounded corners*
0 $1 Rounding radius*
0 $2 $3 $4 $5 $6 $7 $8 $9 X,Y pos of 4 corners*
0 Add a 4 corners polygon primitive as box body*
4,1,4,$2,$3,$4,$5,$6,$7,$8,$9,$2,$3,0*
0 Add four circle primitives for the rounded corners*
1,1,$1+$1,$2,$3*
1,1,$1+$1,$4,$5*
1,1,$1+$1,$6,$7*
1,1,$1+$1,$8,$9*
0 Add four rect primitives between the rounded corners*
20,1,$1+$1,$2,$3,$4,$5,0*
20,1,$1+$1,$4,$5,$6,$7,0*
20,1,$1+$1,$6,$7,$8,$9,0*
20,1,$1+$1,$8,$9,$2,$3,0*%
G04 Aperture macros list end*
%ADD10RoundRect,0.050000X-0.800000X-0.800000X0.800000X-0.800000X0.800000X0.800000X-0.800000X0.800000X0*%
%ADD11O,1.700000X1.700000*%
%ADD12C,2.100000*%
%ADD13RoundRect,0.050000X-1.000000X-1.000000X1.000000X-1.000000X1.000000X1.000000X-1.000000X1.000000X0*%
G04 APERTURE END LIST*
D10*
%TO.C,A1*%
X99035001Y-132253001D03*
D11*
X99035001Y-134793001D03*
X99035001Y-137333001D03*
X99035001Y-139873001D03*
X99035001Y-142413001D03*
X99035001Y-144953001D03*
X99035001Y-147493001D03*
X99035001Y-150033001D03*
X99035001Y-152573001D03*
X99035001Y-155113001D03*
X99035001Y-157653001D03*
X99035001Y-160193001D03*
X99035001Y-162733001D03*
X99035001Y-165273001D03*
X99035001Y-167813001D03*
X114275001Y-167813001D03*
X114275001Y-165273001D03*
X114275001Y-162733001D03*
X114275001Y-160193001D03*
X114275001Y-157653001D03*
X114275001Y-155113001D03*
X114275001Y-152573001D03*
X114275001Y-150033001D03*
X114275001Y-147493001D03*
X114275001Y-144953001D03*
X114275001Y-142413001D03*
X114275001Y-139873001D03*
X114275001Y-137333001D03*
X114275001Y-134793001D03*
X114275001Y-132253001D03*
%TD*%
D12*
%TO.C,J2*%
X91130000Y-131978000D03*
X91130000Y-134518000D03*
X91130000Y-137058000D03*
X91130000Y-139598000D03*
X91130000Y-142138000D03*
X91130000Y-144678000D03*
X91130000Y-147218000D03*
X91130000Y-149758000D03*
X91130000Y-152298000D03*
X91130000Y-154838000D03*
X91130000Y-157378000D03*
X91130000Y-159918000D03*
X91130000Y-162458000D03*
X91130000Y-164998000D03*
X91130000Y-167538000D03*
X91130000Y-170078000D03*
%TD*%
%TO.C,J3*%
X93734000Y-131988000D03*
X93734000Y-134528000D03*
X93734000Y-137068000D03*
X93734000Y-139608000D03*
X93734000Y-142148000D03*
X93734000Y-144688000D03*
X93734000Y-147228000D03*
X93734000Y-149768000D03*
X93734000Y-152308000D03*
X93734000Y-154848000D03*
X93734000Y-157388000D03*
X93734000Y-159928000D03*
X93734000Y-162468000D03*
X93734000Y-165008000D03*
X93734000Y-167548000D03*
X93734000Y-170088000D03*
%TD*%
%TO.C,J4*%
X119832000Y-167792000D03*
X119832000Y-165252000D03*
X119832000Y-162712000D03*
X119832000Y-160172000D03*
X119832000Y-157632000D03*
X119832000Y-155092000D03*
X119832000Y-152552000D03*
X119832000Y-150012000D03*
X119832000Y-147472000D03*
X119832000Y-144932000D03*
X119832000Y-142392000D03*
X119832000Y-139852000D03*
X119832000Y-137312000D03*
X119832000Y-134772000D03*
X119832000Y-132232000D03*
X119832000Y-129692000D03*
%TD*%
%TO.C,GND*%
X88590000Y-124358000D03*
D13*
X93670000Y-124358000D03*
%TD*%
D12*
%TO.C,J1*%
X88590000Y-170078000D03*
X88590000Y-167538000D03*
X88590000Y-164998000D03*
X88590000Y-162458000D03*
X88590000Y-159918000D03*
X88590000Y-157378000D03*
X88590000Y-154838000D03*
X88590000Y-152298000D03*
X88590000Y-149758000D03*
X88590000Y-147218000D03*
X88590000Y-144678000D03*
X88590000Y-142138000D03*
X88590000Y-139598000D03*
X88590000Y-137058000D03*
X88590000Y-134518000D03*
X88590000Y-131978000D03*
%TD*%
%TO.C,GND*%
X88590000Y-128422000D03*
D13*
X93670000Y-128422000D03*
%TD*%
D12*
%TO.C,MOSI*%
X113854000Y-126138000D03*
%TD*%
%TO.C,SDL*%
X122314000Y-171856000D03*
%TD*%
%TO.C,MISO*%
X92664000Y-172768000D03*
%TD*%
%TO.C,SDA*%
X124874000Y-171856000D03*
%TD*%
%TO.C,LP*%
X123034000Y-126138000D03*
%TD*%
%TO.C,Mircro_Schalter*%
X103920000Y-126150000D03*
X106460000Y-126150000D03*
X109000000Y-126150000D03*
%TD*%
%TO.C,SDA*%
X119754000Y-171856000D03*
%TD*%
%TO.C,LP*%
X120004000Y-126088000D03*
%TD*%
%TO.C,MISO*%
X116874000Y-126088000D03*
%TD*%
%TO.C,SDA*%
X117184000Y-171856000D03*
%TD*%
%TO.C,MOSI*%
X89884000Y-172738000D03*
%TD*%
M02*
